<?xml version="1.0" standalone="no"?>
<!DOCTYPE svg PUBLIC "-//W3C//DTD SVG 20010904//EN"
 "http://www.w3.org/TR/2001/REC-SVG-20010904/DTD/svg10.dtd">
<svg version="1.0" xmlns="http://www.w3.org/2000/svg"
 width="150.000000pt" height="150.000000pt" viewBox="0 0 150.000000 150.000000"
 preserveAspectRatio="xMidYMid meet">

<g transform="translate(0.000000,150.000000) scale(0.100000,-0.100000)"
fill="#000000" stroke="none">
<path d="M120 1245 l0 -135 135 0 135 0 0 135 0 135 -135 0 -135 0 0 -135z
m230 0 l0 -95 -95 0 -95 0 0 95 0 95 95 0 95 0 0 -95z"/>
<path d="M200 1245 l0 -55 55 0 55 0 0 55 0 55 -55 0 -55 0 0 -55z"/>
<path d="M470 1340 c0 -33 -3 -40 -20 -40 -19 0 -20 -7 -20 -115 0 -108 1
-115 20 -115 13 0 20 -7 20 -20 0 -17 -7 -20 -40 -20 -29 0 -40 -4 -40 -15 0
-8 -9 -15 -20 -15 -13 0 -20 -7 -20 -20 0 -13 -7 -20 -20 -20 -13 0 -20 -7
-20 -20 0 -13 7 -20 20 -20 13 0 20 -7 20 -20 0 -13 7 -20 20 -20 13 0 20 -7
20 -20 0 -13 -7 -20 -20 -20 -13 0 -20 -7 -20 -20 0 -17 -7 -20 -40 -20 -33 0
-40 -3 -40 -20 0 -11 -7 -20 -15 -20 -8 0 -15 9 -15 20 0 13 -7 20 -20 20 -16
0 -20 -7 -20 -35 0 -28 -4 -35 -20 -35 -11 0 -20 7 -20 15 0 8 -9 15 -20 15
-18 0 -20 -7 -20 -55 0 -48 2 -55 20 -55 13 0 20 7 20 20 0 13 7 20 20 20 17
0 20 -7 20 -40 0 -33 3 -40 20 -40 17 0 20 7 20 40 0 29 4 40 15 40 8 0 15 9
15 20 0 13 7 20 20 20 11 0 20 7 20 15 0 8 9 15 20 15 11 0 20 -7 20 -15 0 -8
-9 -15 -20 -15 -13 0 -20 -7 -20 -20 0 -13 -7 -20 -20 -20 -18 0 -20 -7 -20
-80 0 -64 -3 -80 -15 -80 -8 0 -15 -7 -15 -15 0 -8 7 -15 15 -15 8 0 15 -9 15
-20 0 -11 -7 -20 -15 -20 -8 0 -15 9 -15 20 0 13 -7 20 -20 20 -17 0 -20 -7
-20 -40 l0 -40 115 0 c108 0 115 -1 115 -20 0 -13 7 -20 20 -20 13 0 20 7 20
20 0 11 7 20 15 20 8 0 15 9 15 20 0 13 7 20 20 20 13 0 20 7 20 20 0 13 7 20
20 20 17 0 20 -7 20 -40 0 -33 3 -40 20 -40 17 0 20 7 20 40 0 33 3 40 20 40
13 0 20 -7 20 -20 0 -13 7 -20 20 -20 13 0 20 -7 20 -20 0 -13 -7 -20 -20 -20
-18 0 -20 -7 -20 -60 0 -53 -2 -60 -20 -60 -13 0 -20 7 -20 20 0 13 -7 20 -20
20 -13 0 -20 7 -20 20 0 13 -7 20 -20 20 -13 0 -20 -7 -20 -20 0 -13 -7 -20
-20 -20 -13 0 -20 -7 -20 -20 0 -11 -7 -20 -15 -20 -8 0 -15 9 -15 20 0 13 -7
20 -20 20 -18 0 -20 -7 -20 -75 0 -68 2 -75 20 -75 13 0 20 7 20 20 0 11 7 20
15 20 8 0 15 -9 15 -20 0 -11 -7 -20 -15 -20 -8 0 -15 -9 -15 -20 0 -13 -7
-20 -20 -20 -13 0 -20 -7 -20 -20 0 -16 7 -20 35 -20 28 0 35 4 35 20 0 13 7
20 20 20 13 0 20 -7 20 -20 0 -13 7 -20 20 -20 13 0 20 7 20 20 0 13 7 20 20
20 13 0 20 7 20 20 0 13 -7 20 -20 20 -13 0 -20 7 -20 20 0 13 -7 20 -20 20
-16 0 -20 7 -20 35 0 34 1 35 40 35 39 0 40 -1 40 -35 0 -28 4 -35 20 -35 11
0 20 7 20 15 0 8 9 15 20 15 11 0 20 -7 20 -15 0 -10 11 -15 35 -15 24 0 35 5
35 15 0 10 -11 15 -35 15 -28 0 -35 4 -35 20 0 16 7 20 35 20 28 0 35 4 35 20
0 11 -7 20 -15 20 -8 0 -15 9 -15 20 0 11 7 20 15 20 8 0 15 9 15 20 0 13 7
20 20 20 17 0 20 -7 20 -40 0 -33 3 -40 20 -40 13 0 20 -7 20 -20 0 -13 -7
-20 -20 -20 -13 0 -20 -7 -20 -20 0 -17 7 -20 40 -20 29 0 40 -4 40 -15 0 -11
-11 -15 -40 -15 -33 0 -40 -3 -40 -20 0 -13 7 -20 20 -20 17 0 20 -7 20 -40 0
-33 3 -40 20 -40 13 0 20 7 20 20 0 18 7 20 55 20 48 0 55 -2 55 -20 0 -17 7
-20 40 -20 33 0 40 3 40 20 0 13 7 20 20 20 13 0 20 7 20 20 0 17 7 20 40 20
33 0 40 -3 40 -20 0 -13 -7 -20 -20 -20 -13 0 -20 -7 -20 -20 0 -13 7 -20 20
-20 13 0 20 7 20 20 0 13 7 20 20 20 13 0 20 -7 20 -20 0 -11 7 -20 15 -20 8
0 15 9 15 20 0 13 7 20 20 20 13 0 20 -7 20 -20 0 -13 7 -20 20 -20 13 0 20 7
20 20 0 13 -7 20 -20 20 -18 0 -20 7 -20 55 0 48 2 55 20 55 11 0 20 -7 20
-15 0 -8 9 -15 20 -15 11 0 20 7 20 15 0 8 -9 15 -20 15 -13 0 -20 7 -20 20 0
13 -7 20 -20 20 -13 0 -20 7 -20 20 0 13 7 20 20 20 13 0 20 7 20 20 0 13 7
20 20 20 17 0 20 7 20 40 l0 40 -40 0 c-33 0 -40 3 -40 20 0 13 7 20 20 20 11
0 20 7 20 15 0 8 9 15 20 15 18 0 20 7 20 60 0 53 -2 60 -20 60 -13 0 -20 7
-20 20 0 13 7 20 20 20 16 0 20 7 20 35 0 28 -4 35 -20 35 -16 0 -20 -7 -20
-35 0 -28 -4 -35 -20 -35 -13 0 -20 7 -20 20 0 13 -7 20 -20 20 -11 0 -20 7
-20 15 0 8 9 15 20 15 13 0 20 7 20 20 0 13 7 20 20 20 13 0 20 7 20 20 0 13
7 20 20 20 18 0 20 7 20 60 0 53 -2 60 -20 60 -13 0 -20 7 -20 20 0 13 7 20
20 20 11 0 20 7 20 15 0 8 -9 15 -20 15 -11 0 -20 -7 -20 -15 0 -8 -9 -15 -20
-15 -16 0 -20 7 -20 35 l0 35 -95 0 -95 0 0 -35 c0 -34 1 -35 40 -35 29 0 40
4 40 15 0 8 9 15 20 15 11 0 20 -7 20 -15 0 -8 7 -15 15 -15 8 0 15 -9 15 -20
0 -11 -7 -20 -15 -20 -8 0 -15 9 -15 20 0 13 -7 20 -20 20 -18 0 -20 -7 -20
-60 l0 -60 35 0 c28 0 35 -4 35 -20 0 -11 -7 -20 -15 -20 -11 0 -15 -11 -15
-40 0 -33 -3 -40 -20 -40 -13 0 -20 7 -20 20 0 13 -7 20 -20 20 -17 0 -20 7
-20 40 l0 40 -40 0 -40 0 0 40 0 40 -55 0 -55 0 0 35 c0 28 -4 35 -20 35 -13
0 -20 7 -20 20 0 16 7 20 35 20 34 0 35 1 35 40 0 29 -4 40 -15 40 -8 0 -15 9
-15 20 0 17 -7 20 -40 20 l-40 0 0 -40 c0 -33 3 -40 20 -40 13 0 20 -7 20 -20
0 -13 -7 -20 -20 -20 -13 0 -20 -7 -20 -20 0 -17 -7 -20 -40 -20 -33 0 -40 3
-40 20 0 16 -7 20 -35 20 -28 0 -35 4 -35 20 0 11 7 20 15 20 8 0 15 9 15 20
0 13 7 20 20 20 13 0 20 -7 20 -20 0 -13 7 -20 20 -20 18 0 20 7 20 60 0 53
-2 60 -20 60 -13 0 -20 -7 -20 -20 0 -16 -7 -20 -35 -20 -28 0 -35 4 -35 20 0
11 7 20 15 20 8 0 15 7 15 15 0 12 13 15 60 15 47 0 60 -3 60 -15 0 -12 13
-15 55 -15 42 0 55 3 55 15 0 12 -13 15 -55 15 -48 0 -55 2 -55 20 0 17 -7 20
-40 20 l-40 0 0 40 c0 33 -3 40 -20 40 -17 0 -20 -7 -20 -40 0 -29 -4 -40 -15
-40 -8 0 -15 9 -15 20 0 17 -7 20 -40 20 -33 0 -40 3 -40 20 0 13 -7 20 -20
20 -13 0 -20 -7 -20 -20 0 -18 -7 -20 -60 -20 -53 0 -60 2 -60 20 0 11 -7 20
-15 20 -11 0 -15 -11 -15 -40z m150 -60 c0 -13 7 -20 20 -20 13 0 20 7 20 20
0 13 7 20 20 20 13 0 20 -7 20 -20 0 -13 -7 -20 -20 -20 -11 0 -20 -7 -20 -15
0 -8 9 -15 20 -15 13 0 20 -7 20 -20 0 -13 -7 -20 -20 -20 -13 0 -20 7 -20 20
0 13 -7 20 -20 20 -13 0 -20 -7 -20 -20 0 -13 -7 -20 -20 -20 -18 0 -20 -7
-20 -60 0 -53 2 -60 20 -60 17 0 20 7 20 40 0 33 3 40 20 40 17 0 20 -7 20
-40 0 -33 -3 -40 -20 -40 -13 0 -20 -7 -20 -20 0 -18 7 -20 60 -20 47 0 60 -3
60 -15 0 -8 -9 -15 -20 -15 -13 0 -20 -7 -20 -20 0 -13 7 -20 20 -20 13 0 20
-7 20 -20 0 -11 7 -20 15 -20 12 0 15 13 15 55 0 48 2 55 20 55 16 0 20 -7 20
-35 0 -28 4 -35 20 -35 13 0 20 7 20 20 0 13 7 20 20 20 17 0 20 -7 20 -40 0
-33 3 -40 20 -40 13 0 20 -7 20 -20 0 -13 7 -20 20 -20 13 0 20 7 20 20 0 16
7 20 35 20 28 0 35 -4 35 -20 0 -13 7 -20 20 -20 18 0 20 -7 20 -75 0 -68 2
-75 20 -75 11 0 20 7 20 15 0 8 9 15 20 15 11 0 20 -7 20 -15 0 -8 -9 -15 -20
-15 -13 0 -20 -7 -20 -20 0 -13 -7 -20 -20 -20 -18 0 -20 -7 -20 -80 l0 -80
40 0 c33 0 40 3 40 20 0 13 -7 20 -20 20 -17 0 -20 7 -20 40 0 33 3 40 20 40
13 0 20 -7 20 -20 0 -13 7 -20 20 -20 13 0 20 -7 20 -20 0 -13 7 -20 20 -20
13 0 20 -7 20 -20 0 -11 7 -20 15 -20 8 0 15 -7 15 -15 0 -8 -7 -15 -15 -15
-8 0 -15 7 -15 15 0 8 -9 15 -20 15 -16 0 -20 -7 -20 -35 0 -28 -4 -35 -20
-35 -13 0 -20 7 -20 20 0 13 -7 20 -20 20 -13 0 -20 -7 -20 -20 0 -13 -7 -20
-20 -20 -16 0 -20 7 -20 35 0 28 -4 35 -20 35 -11 0 -20 -7 -20 -15 0 -8 -9
-15 -20 -15 -13 0 -20 -7 -20 -20 0 -13 7 -20 20 -20 17 0 20 -7 20 -40 0 -33
-3 -40 -20 -40 -13 0 -20 -7 -20 -20 0 -11 -7 -20 -15 -20 -11 0 -15 11 -15
40 0 29 4 40 15 40 8 0 15 9 15 20 0 11 -7 20 -15 20 -8 0 -15 -9 -15 -20 0
-13 -7 -20 -20 -20 -13 0 -20 7 -20 20 0 13 -7 20 -20 20 -13 0 -20 -7 -20
-20 0 -17 -7 -20 -40 -20 -33 0 -40 3 -40 20 0 13 -7 20 -20 20 -13 0 -20 -7
-20 -20 0 -11 -7 -20 -15 -20 -8 0 -15 -9 -15 -20 0 -13 -7 -20 -20 -20 -13 0
-20 7 -20 20 0 13 7 20 20 20 17 0 20 7 20 40 0 39 1 40 35 40 24 0 35 5 35
15 0 8 9 15 20 15 13 0 20 7 20 20 0 17 -7 20 -40 20 -33 0 -40 -3 -40 -20 0
-11 -7 -20 -15 -20 -8 0 -15 9 -15 20 0 11 7 20 15 20 8 0 15 9 15 20 0 16 -7
20 -35 20 -28 0 -35 4 -35 20 0 13 7 20 20 20 13 0 20 7 20 20 0 17 -7 20 -40
20 l-40 0 0 -80 c0 -73 -2 -80 -20 -80 -11 0 -20 -7 -20 -15 0 -8 -9 -15 -20
-15 -11 0 -20 7 -20 15 0 8 -9 15 -20 15 -11 0 -20 -7 -20 -15 0 -10 -11 -15
-35 -15 -28 0 -35 -4 -35 -20 0 -18 -7 -20 -60 -20 -53 0 -60 2 -60 20 0 13
-7 20 -20 20 -11 0 -20 7 -20 15 0 8 9 15 20 15 13 0 20 7 20 20 0 13 7 20 20
20 13 0 20 7 20 20 0 13 -7 20 -20 20 -13 0 -20 7 -20 20 0 13 -7 20 -20 20
-13 0 -20 7 -20 20 0 13 7 20 20 20 13 0 20 7 20 20 0 13 7 20 20 20 11 0 20
7 20 15 0 8 -9 15 -20 15 -13 0 -20 7 -20 20 0 13 7 20 20 20 13 0 20 7 20 20
0 13 7 20 20 20 13 0 20 7 20 20 0 13 -7 20 -20 20 -13 0 -20 7 -20 20 0 13
-7 20 -20 20 -13 0 -20 7 -20 20 0 18 7 20 60 20 53 0 60 2 60 20 0 16 7 20
35 20 28 0 35 -4 35 -20 0 -16 -7 -20 -35 -20 -28 0 -35 -4 -35 -20 0 -16 7
-20 35 -20 28 0 35 -4 35 -20 0 -13 7 -20 20 -20 17 0 20 7 20 40 0 33 3 40
20 40 16 0 20 7 20 35 l0 35 -60 0 -60 0 0 40 c0 29 -4 40 -15 40 -8 0 -15 9
-15 20 0 11 7 20 15 20 8 0 15 -9 15 -20 0 -13 7 -20 20 -20 17 0 20 7 20 40
0 39 -1 40 -35 40 -28 0 -35 4 -35 20 0 11 7 20 15 20 8 0 15 7 15 15 0 11 11
15 40 15 33 0 40 3 40 20 0 13 7 20 20 20 13 0 20 -7 20 -20z m120 -150 c0
-13 -7 -20 -20 -20 -13 0 -20 7 -20 20 0 13 7 20 20 20 13 0 20 -7 20 -20z
m230 0 c0 -13 -7 -20 -20 -20 -13 0 -20 7 -20 20 0 13 7 20 20 20 13 0 20 -7
20 -20z m380 -190 c0 -13 -7 -20 -20 -20 -13 0 -20 -7 -20 -20 0 -13 -7 -20
-20 -20 -13 0 -20 7 -20 20 0 13 7 20 20 20 13 0 20 7 20 20 0 13 7 20 20 20
13 0 20 -7 20 -20z m-110 -230 c0 -11 7 -20 15 -20 8 0 15 -9 15 -20 0 -11 -7
-20 -15 -20 -8 0 -15 9 -15 20 0 13 -7 20 -20 20 -13 0 -20 7 -20 20 0 13 7
20 20 20 13 0 20 -7 20 -20z m70 -120 c0 -13 7 -20 20 -20 13 0 20 -7 20 -20
0 -13 -7 -20 -20 -20 -13 0 -20 7 -20 20 0 13 -7 20 -20 20 -13 0 -20 7 -20
20 0 13 7 20 20 20 13 0 20 -7 20 -20z m0 -150 c0 -13 7 -20 20 -20 13 0 20
-7 20 -20 0 -13 -7 -20 -20 -20 -13 0 -20 7 -20 20 0 13 -7 20 -20 20 -17 0
-20 -7 -20 -40 0 -29 -4 -40 -15 -40 -12 0 -15 13 -15 60 l0 60 35 0 c28 0 35
-4 35 -20z m-110 -80 l0 -60 -60 0 -60 0 0 60 0 60 60 0 60 0 0 -60z m-310 0
c0 -13 -7 -20 -20 -20 -13 0 -20 7 -20 20 0 13 7 20 20 20 13 0 20 -7 20 -20z
m40 -80 c0 -13 -7 -20 -20 -20 -13 0 -20 7 -20 20 0 13 7 20 20 20 13 0 20 -7
20 -20z m110 0 c0 -13 7 -20 20 -20 11 0 20 -7 20 -15 0 -8 9 -15 20 -15 11 0
20 7 20 15 0 11 11 15 40 15 29 0 40 -4 40 -15 0 -8 9 -15 20 -15 13 0 20 -7
20 -20 0 -11 7 -20 15 -20 8 0 15 -9 15 -20 0 -11 -7 -20 -15 -20 -8 0 -15 9
-15 20 0 13 -7 20 -20 20 -13 0 -20 7 -20 20 0 17 -7 20 -40 20 -33 0 -40 -3
-40 -20 0 -13 -7 -20 -20 -20 -13 0 -20 -7 -20 -20 0 -13 -7 -20 -20 -20 -18
0 -20 7 -20 55 l0 55 -35 0 c-33 0 -35 -2 -35 -35 0 -34 -1 -35 -40 -35 -33 0
-40 3 -40 20 0 13 7 20 20 20 11 0 20 7 20 15 0 8 9 15 20 15 13 0 20 7 20 20
0 16 7 20 35 20 28 0 35 -4 35 -20z m270 0 c0 -13 -7 -20 -20 -20 -13 0 -20 7
-20 20 0 13 7 20 20 20 13 0 20 -7 20 -20z"/>
<path d="M660 940 c0 -13 7 -20 20 -20 13 0 20 7 20 20 0 13 -7 20 -20 20 -13
0 -20 -7 -20 -20z"/>
<path d="M810 900 c0 -19 -7 -20 -95 -20 -88 0 -95 -1 -95 -20 0 -19 -7 -20
-95 -20 -88 0 -95 -1 -95 -20 0 -13 -7 -20 -20 -20 -13 0 -20 -7 -20 -20 0
-13 7 -20 20 -20 11 0 20 -7 20 -15 0 -8 -9 -15 -20 -15 -13 0 -20 -7 -20 -20
0 -13 -7 -20 -20 -20 -13 0 -20 -7 -20 -20 0 -13 7 -20 20 -20 13 0 20 7 20
20 0 17 7 20 40 20 l40 0 0 55 c0 42 3 55 15 55 12 0 15 -13 15 -55 l0 -55 40
0 c33 0 40 3 40 20 0 13 7 20 20 20 13 0 20 -7 20 -20 0 -13 7 -20 20 -20 18
0 20 7 20 55 0 48 -2 55 -20 55 -13 0 -20 7 -20 20 0 18 7 20 75 20 68 0 75
-2 75 -20 0 -11 -7 -20 -15 -20 -8 0 -15 -9 -15 -20 0 -11 7 -20 15 -20 8 0
15 -7 15 -15 0 -8 -7 -15 -15 -15 -8 0 -15 -9 -15 -20 0 -11 7 -20 15 -20 11
0 15 -11 15 -40 l0 -40 40 0 c33 0 40 3 40 20 0 13 -7 20 -20 20 -13 0 -20 7
-20 20 0 18 7 20 60 20 53 0 60 2 60 20 0 13 -7 20 -20 20 -11 0 -20 7 -20 15
0 11 11 15 40 15 l40 0 0 -55 c0 -42 3 -55 15 -55 8 0 15 -9 15 -20 0 -18 -7
-20 -55 -20 -48 0 -55 -2 -55 -20 0 -13 7 -20 20 -20 13 0 20 -7 20 -20 0 -13
-7 -20 -20 -20 -11 0 -20 -7 -20 -15 0 -8 9 -15 20 -15 13 0 20 -7 20 -20 0
-13 7 -20 20 -20 13 0 20 7 20 20 0 11 7 20 15 20 8 0 15 7 15 15 0 8 -7 15
-15 15 -8 0 -15 9 -15 20 0 11 7 20 15 20 8 0 15 -9 15 -20 0 -13 7 -20 20
-20 18 0 20 7 20 60 0 53 -2 60 -20 60 -13 0 -20 7 -20 20 0 13 7 20 20 20 13
0 20 7 20 20 0 13 -7 20 -20 20 -11 0 -20 7 -20 15 0 8 -7 15 -15 15 -8 0 -15
9 -15 20 0 11 7 20 15 20 8 0 15 9 15 20 0 13 7 20 20 20 13 0 20 7 20 20 0
16 -7 20 -35 20 -34 0 -35 -1 -35 -40 l0 -40 -40 0 c-33 0 -40 3 -40 20 0 13
7 20 20 20 13 0 20 7 20 20 0 13 -7 20 -20 20 -13 0 -20 -7 -20 -20 0 -13 -7
-20 -20 -20 -18 0 -20 -7 -20 -55 0 -48 -2 -55 -20 -55 -11 0 -20 7 -20 15 0
8 -9 15 -20 15 -13 0 -20 7 -20 20 0 13 7 20 20 20 17 0 20 7 20 40 0 33 3 40
20 40 13 0 20 7 20 20 0 13 -7 20 -20 20 -13 0 -20 -7 -20 -20z m-190 -120 c0
-13 -7 -20 -20 -20 -13 0 -20 7 -20 20 0 13 7 20 20 20 13 0 20 -7 20 -20z"/>
<path d="M500 630 c0 -13 7 -20 20 -20 13 0 20 -7 20 -20 0 -17 7 -20 40 -20
l40 0 0 40 0 40 -60 0 c-53 0 -60 -2 -60 -20z"/>
<path d="M390 550 c0 -13 -7 -20 -20 -20 -11 0 -20 -7 -20 -15 0 -11 11 -15
40 -15 39 0 40 1 40 35 0 28 -4 35 -20 35 -13 0 -20 -7 -20 -20z"/>
<path d="M470 550 c0 -11 7 -20 15 -20 8 0 15 9 15 20 0 11 -7 20 -15 20 -8 0
-15 -9 -15 -20z"/>
<path d="M810 480 c0 -13 7 -20 20 -20 13 0 20 7 20 20 0 13 -7 20 -20 20 -13
0 -20 -7 -20 -20z"/>
<path d="M1120 360 c0 -13 7 -20 20 -20 13 0 20 7 20 20 0 13 -7 20 -20 20
-13 0 -20 -7 -20 -20z"/>
<path d="M850 1360 c0 -17 7 -20 40 -20 33 0 40 3 40 20 0 17 -7 20 -40 20
-33 0 -40 -3 -40 -20z"/>
<path d="M970 1340 c0 -29 4 -40 15 -40 8 0 15 9 15 20 0 13 7 20 20 20 13 0
20 -7 20 -20 0 -13 7 -20 20 -20 13 0 20 7 20 20 0 13 -7 20 -20 20 -13 0 -20
7 -20 20 0 16 -7 20 -35 20 -34 0 -35 -1 -35 -40z"/>
<path d="M1120 1245 l0 -135 135 0 135 0 0 135 0 135 -135 0 -135 0 0 -135z
m230 0 l0 -95 -95 0 -95 0 0 95 0 95 95 0 95 0 0 -95z"/>
<path d="M1200 1245 l0 -55 55 0 55 0 0 55 0 55 -55 0 -55 0 0 -55z"/>
<path d="M1040 1225 c0 -28 4 -35 20 -35 16 0 20 7 20 35 0 28 -4 35 -20 35
-16 0 -20 -7 -20 -35z"/>
<path d="M1040 1130 c0 -13 7 -20 20 -20 13 0 20 7 20 20 0 13 -7 20 -20 20
-13 0 -20 -7 -20 -20z"/>
<path d="M120 1050 c0 -13 7 -20 20 -20 13 0 20 7 20 20 0 13 -7 20 -20 20
-13 0 -20 -7 -20 -20z"/>
<path d="M200 1035 c0 -28 4 -35 20 -35 13 0 20 -7 20 -20 0 -17 -7 -20 -40
-20 l-40 0 0 -40 c0 -33 -3 -40 -20 -40 -17 0 -20 -7 -20 -40 0 -33 3 -40 20
-40 13 0 20 7 20 20 0 18 7 20 55 20 48 0 55 2 55 20 0 11 -7 20 -15 20 -11 0
-15 11 -15 40 0 29 4 40 15 40 10 0 15 11 15 35 l0 35 60 0 c53 0 60 2 60 20
0 19 -7 20 -95 20 l-95 0 0 -35z"/>
<path d="M1000 1015 c0 -8 9 -15 20 -15 11 0 20 7 20 15 0 8 -9 15 -20 15 -11
0 -20 -7 -20 -15z"/>
<path d="M1120 940 c0 -13 7 -20 20 -20 13 0 20 7 20 20 0 13 -7 20 -20 20
-13 0 -20 -7 -20 -20z"/>
<path d="M120 495 c0 -68 2 -75 20 -75 18 0 20 7 20 75 0 68 -2 75 -20 75 -18
0 -20 -7 -20 -75z"/>
<path d="M120 245 l0 -135 135 0 135 0 0 135 0 135 -135 0 -135 0 0 -135z
m230 0 l0 -95 -95 0 -95 0 0 95 0 95 95 0 95 0 0 -95z"/>
<path d="M200 245 l0 -55 55 0 55 0 0 55 0 55 -55 0 -55 0 0 -55z"/>
<path d="M660 170 c0 -13 7 -20 20 -20 13 0 20 7 20 20 0 13 -7 20 -20 20 -13
0 -20 -7 -20 -20z"/>
<path d="M740 170 c0 -11 7 -20 15 -20 8 0 15 -9 15 -20 0 -13 7 -20 20 -20
13 0 20 7 20 20 0 13 -7 20 -20 20 -13 0 -20 7 -20 20 0 11 -7 20 -15 20 -8 0
-15 -9 -15 -20z"/>
</g>
</svg>
