<?xml version="1.0" standalone="no"?>
<!DOCTYPE svg PUBLIC "-//W3C//DTD SVG 20010904//EN"
 "http://www.w3.org/TR/2001/REC-SVG-20010904/DTD/svg10.dtd">
<svg version="1.0" xmlns="http://www.w3.org/2000/svg"
 width="300.000000pt" height="300.000000pt" viewBox="0 0 300.000000 300.000000"
 preserveAspectRatio="xMidYMid meet">

<g transform="translate(0.000000,300.000000) scale(0.100000,-0.100000)"
fill="#000000" stroke="none">
<path d="M170 2655 l0 -175 175 0 175 0 0 175 0 175 -175 0 -175 0 0 -175z
m300 0 l0 -125 -125 0 -125 0 0 125 0 125 125 0 125 0 0 -125z"/>
<path d="M270 2655 l0 -75 75 0 75 0 0 75 0 75 -75 0 -75 0 0 -75z"/>
<path d="M570 2755 c0 -73 1 -75 25 -75 23 0 25 -3 25 -50 0 -47 -2 -50 -25
-50 l-25 0 0 -100 0 -100 25 0 c20 0 25 -5 25 -25 0 -24 -2 -25 -75 -25 -73 0
-75 1 -75 25 0 20 5 25 25 25 20 0 25 5 25 25 0 20 -5 25 -25 25 -20 0 -25 -5
-25 -25 0 -20 -5 -25 -25 -25 -20 0 -25 5 -25 25 0 24 -2 25 -75 25 -73 0 -75
-1 -75 -25 0 -23 -3 -25 -50 -25 -47 0 -50 -2 -50 -25 0 -20 5 -25 25 -25 23
0 25 -3 25 -50 0 -47 -2 -50 -25 -50 -20 0 -25 -5 -25 -25 0 -20 5 -25 25 -25
20 0 25 5 25 25 0 23 3 25 50 25 47 0 50 -2 50 -25 0 -23 3 -25 50 -25 l50 0
0 -75 c0 -73 1 -75 25 -75 20 0 25 -5 25 -25 0 -20 5 -25 25 -25 20 0 25 -5
25 -25 0 -20 -5 -25 -25 -25 -20 0 -25 -5 -25 -25 0 -23 -3 -25 -50 -25 -47 0
-50 -2 -50 -25 0 -20 -5 -25 -25 -25 -20 0 -25 5 -25 25 0 20 -5 25 -25 25
-24 0 -25 -2 -25 -75 0 -73 -1 -75 -25 -75 -23 0 -25 -3 -25 -50 0 -47 -2 -50
-25 -50 -20 0 -25 -5 -25 -25 0 -23 3 -25 50 -25 47 0 50 -2 50 -25 0 -20 5
-25 25 -25 23 0 25 3 25 50 0 47 -2 50 -25 50 -20 0 -25 5 -25 25 0 20 5 25
25 25 23 0 25 3 25 50 l0 50 100 0 100 0 0 25 c0 23 3 25 50 25 47 0 50 -2 50
-25 0 -20 -5 -25 -25 -25 -20 0 -25 -5 -25 -25 0 -23 -3 -25 -50 -25 -47 0
-50 -2 -50 -25 0 -23 -3 -25 -50 -25 l-50 0 0 -100 0 -100 -75 0 c-73 0 -75 1
-75 25 0 20 -5 25 -25 25 -24 0 -25 -2 -25 -75 l0 -75 50 0 c47 0 50 2 50 25
0 20 5 25 25 25 23 0 25 -3 25 -50 l0 -50 -50 0 c-47 0 -50 -2 -50 -25 0 -20
-5 -25 -25 -25 -20 0 -25 -5 -25 -25 0 -20 5 -25 25 -25 20 0 25 -5 25 -25 0
-20 -5 -25 -25 -25 -20 0 -25 -5 -25 -25 l0 -25 100 0 100 0 0 -100 0 -100
-50 0 c-47 0 -50 2 -50 25 0 20 5 25 25 25 20 0 25 5 25 25 0 20 -5 25 -25 25
-20 0 -25 -5 -25 -25 0 -23 -3 -25 -50 -25 l-50 0 0 -50 0 -50 75 0 c73 0 75
-1 75 -25 0 -23 -3 -25 -50 -25 l-50 0 0 -50 c0 -47 -2 -50 -25 -50 -20 0 -25
-5 -25 -25 0 -20 5 -25 25 -25 20 0 25 -5 25 -25 0 -23 3 -25 50 -25 47 0 50
-2 50 -25 0 -20 5 -25 25 -25 20 0 25 5 25 25 0 20 -5 25 -25 25 -20 0 -25 5
-25 25 l0 25 100 0 100 0 0 25 0 25 -100 0 -100 0 0 -25 c0 -20 -5 -25 -25
-25 -23 0 -25 3 -25 50 0 47 2 50 25 50 20 0 25 5 25 25 0 20 5 25 25 25 20 0
25 -5 25 -25 l0 -25 100 0 100 0 0 -25 c0 -20 5 -25 25 -25 20 0 25 5 25 25 0
23 3 25 50 25 47 0 50 -2 50 -25 0 -20 5 -25 25 -25 20 0 25 -5 25 -25 0 -20
-5 -25 -25 -25 -23 0 -25 -3 -25 -50 0 -47 -2 -50 -25 -50 -20 0 -25 -5 -25
-25 0 -20 -5 -25 -25 -25 -23 0 -25 3 -25 50 0 47 -2 50 -25 50 -23 0 -25 -3
-25 -50 0 -47 2 -50 25 -50 23 0 25 -3 25 -50 0 -47 -2 -50 -25 -50 -24 0 -25
-2 -25 -75 0 -73 1 -75 25 -75 23 0 25 -3 25 -50 0 -47 2 -50 25 -50 23 0 25
3 25 50 0 47 -2 50 -25 50 -20 0 -25 5 -25 25 0 20 5 25 25 25 23 0 25 3 25
50 0 47 2 50 25 50 23 0 25 -3 25 -50 0 -47 2 -50 25 -50 20 0 25 -5 25 -25 0
-20 5 -25 25 -25 23 0 25 -3 25 -50 0 -47 2 -50 25 -50 20 0 25 5 25 25 0 23
3 25 50 25 47 0 50 -2 50 -25 0 -20 5 -25 25 -25 20 0 25 5 25 25 0 20 5 25
25 25 20 0 25 5 25 25 0 20 -5 25 -25 25 -20 0 -25 5 -25 25 0 20 5 25 25 25
20 0 25 5 25 25 0 20 5 25 25 25 20 0 25 5 25 25 l0 25 -100 0 -100 0 0 25 c0
20 5 25 25 25 20 0 25 5 25 25 0 20 5 25 25 25 20 0 25 -5 25 -25 0 -24 2 -25
75 -25 73 0 75 -1 75 -25 0 -20 5 -25 25 -25 20 0 25 -5 25 -25 0 -20 -5 -25
-25 -25 -20 0 -25 -5 -25 -25 0 -20 -5 -25 -25 -25 -20 0 -25 -5 -25 -25 0
-20 5 -25 25 -25 20 0 25 5 25 25 0 20 5 25 25 25 23 0 25 -3 25 -50 l0 -50
-50 0 c-47 0 -50 -2 -50 -25 0 -23 3 -25 50 -25 47 0 50 2 50 25 0 20 5 25 25
25 20 0 25 -5 25 -25 0 -24 2 -25 75 -25 73 0 75 1 75 25 0 20 5 25 25 25 20
0 25 -5 25 -25 0 -20 5 -25 25 -25 20 0 25 5 25 25 0 20 5 25 25 25 20 0 25
-5 25 -25 0 -20 5 -25 25 -25 20 0 25 5 25 25 0 20 5 25 25 25 20 0 25 -5 25
-25 0 -20 5 -25 25 -25 20 0 25 5 25 25 0 20 5 25 25 25 23 0 25 3 25 50 l0
50 50 0 50 0 0 -50 c0 -47 -2 -50 -25 -50 -20 0 -25 -5 -25 -25 0 -20 5 -25
25 -25 20 0 25 5 25 25 0 20 5 25 25 25 20 0 25 -5 25 -25 0 -20 5 -25 25 -25
20 0 25 5 25 25 0 23 3 25 50 25 47 0 50 -2 50 -25 0 -23 3 -25 50 -25 47 0
50 2 50 25 0 20 5 25 25 25 20 0 25 -5 25 -25 l0 -25 100 0 100 0 0 25 c0 20
5 25 25 25 20 0 25 -5 25 -25 0 -20 5 -25 25 -25 20 0 25 5 25 25 0 20 -5 25
-25 25 -23 0 -25 3 -25 50 l0 50 -75 0 -75 0 0 125 0 125 -25 0 c-20 0 -25 5
-25 25 0 20 -5 25 -25 25 -23 0 -25 -3 -25 -50 0 -47 2 -50 25 -50 20 0 25 -5
25 -25 0 -23 -3 -25 -50 -25 -47 0 -50 2 -50 25 l0 25 -100 0 -100 0 0 -25 c0
-20 5 -25 25 -25 20 0 25 -5 25 -25 0 -23 -3 -25 -50 -25 l-50 0 0 50 c0 47
-2 50 -25 50 -24 0 -25 -2 -25 -75 l0 -75 -50 0 c-47 0 -50 -2 -50 -25 0 -20
-5 -25 -25 -25 -23 0 -25 3 -25 50 0 47 2 50 25 50 20 0 25 5 25 25 0 20 5 25
25 25 23 0 25 3 25 50 l0 50 50 0 c47 0 50 2 50 25 0 20 5 25 25 25 20 0 25
-5 25 -25 0 -20 5 -25 25 -25 20 0 25 5 25 25 0 20 -5 25 -25 25 -20 0 -25 5
-25 25 0 24 2 25 75 25 73 0 75 1 75 25 0 23 -3 25 -50 25 -47 0 -50 2 -50 25
0 20 5 25 25 25 23 0 25 3 25 50 l0 50 -75 0 c-73 0 -75 1 -75 25 0 20 5 25
25 25 20 0 25 5 25 25 0 20 5 25 25 25 20 0 25 -5 25 -25 0 -20 5 -25 25 -25
20 0 25 5 25 25 0 23 3 25 50 25 47 0 50 2 50 25 0 20 5 25 25 25 23 0 25 3
25 50 l0 50 -50 0 -50 0 0 -50 0 -50 -50 0 c-47 0 -50 2 -50 25 0 20 5 25 25
25 23 0 25 3 25 50 0 47 -2 50 -25 50 -20 0 -25 5 -25 25 0 14 -4 25 -10 25
-5 0 -10 -22 -10 -50 0 -27 5 -50 10 -50 6 0 10 -11 10 -25 0 -20 -5 -25 -25
-25 -20 0 -25 5 -25 25 0 20 -5 25 -25 25 -20 0 -25 -5 -25 -25 0 -20 5 -25
25 -25 20 0 25 -5 25 -25 0 -20 -5 -25 -25 -25 -20 0 -25 -5 -25 -25 0 -20 -5
-25 -25 -25 -23 0 -25 -3 -25 -50 l0 -50 -50 0 c-47 0 -50 -2 -50 -25 0 -20
-5 -25 -25 -25 -20 0 -25 -5 -25 -25 0 -20 5 -25 25 -25 20 0 25 -5 25 -25 0
-24 -2 -25 -75 -25 -73 0 -75 -1 -75 -25 0 -20 -5 -25 -25 -25 -20 0 -25 5
-25 25 0 23 -3 25 -50 25 -47 0 -50 2 -50 25 0 20 -5 25 -25 25 -20 0 -25 5
-25 25 0 20 -5 25 -25 25 -20 0 -25 5 -25 25 0 20 -5 25 -25 25 -20 0 -25 5
-25 25 0 20 -5 25 -25 25 -20 0 -25 5 -25 25 0 23 -3 25 -50 25 l-50 0 0 50
c0 47 2 50 25 50 20 0 25 -5 25 -25 0 -20 5 -25 25 -25 20 0 25 5 25 25 0 20
-5 25 -25 25 -20 0 -25 5 -25 25 0 20 -5 25 -25 25 -20 0 -25 -5 -25 -25 0
-20 -5 -25 -25 -25 -20 0 -25 5 -25 25 0 23 -3 25 -50 25 -47 0 -50 -2 -50
-25 0 -20 5 -25 25 -25 20 0 25 -5 25 -25 0 -20 -5 -25 -25 -25 -20 0 -25 -5
-25 -25 0 -20 -5 -25 -25 -25 -20 0 -25 5 -25 25 0 20 -5 25 -25 25 -20 0 -25
5 -25 25 0 20 -5 25 -25 25 -20 0 -25 -5 -25 -25 0 -23 -3 -25 -50 -25 -47 0
-50 2 -50 25 0 23 -3 25 -50 25 l-50 0 0 50 c0 47 -2 50 -25 50 -20 0 -25 -5
-25 -25 0 -20 -5 -25 -25 -25 -23 0 -25 -3 -25 -50 l0 -50 -50 0 c-47 0 -50
-2 -50 -25 0 -20 -5 -25 -25 -25 -23 0 -25 3 -25 50 l0 50 50 0 c47 0 50 2 50
25 0 20 -5 25 -25 25 -20 0 -25 5 -25 25 0 23 3 25 50 25 47 0 50 2 50 25 l0
25 100 0 100 0 0 -25 c0 -20 -5 -25 -25 -25 -20 0 -25 -5 -25 -25 0 -20 5 -25
25 -25 20 0 25 5 25 25 0 20 5 25 25 25 20 0 25 5 25 25 0 23 3 25 50 25 47 0
50 2 50 25 0 20 5 25 25 25 20 0 25 5 25 25 0 16 6 25 15 25 9 0 15 9 15 25 0
16 -6 25 -15 25 -11 0 -15 12 -15 50 0 38 4 50 15 50 9 0 15 9 15 25 0 23 -4
25 -40 25 l-40 0 0 -75 c0 -73 -1 -75 -25 -75 -20 0 -25 -5 -25 -25 0 -23 -3
-25 -50 -25 -47 0 -50 -2 -50 -25 0 -24 -2 -25 -75 -25 -73 0 -75 1 -75 25 0
20 -5 25 -25 25 -20 0 -25 5 -25 25 0 23 3 25 50 25 47 0 50 -2 50 -25 0 -20
5 -25 25 -25 20 0 25 5 25 25 0 20 -5 25 -25 25 -20 0 -25 5 -25 25 0 20 5 25
25 25 23 0 25 3 25 50 l0 50 -50 0 c-47 0 -50 2 -50 25 0 24 2 25 75 25 73 0
75 -1 75 -25 0 -20 5 -25 25 -25 20 0 25 -5 25 -25 0 -20 5 -25 25 -25 20 0
25 5 25 25 0 20 -5 25 -25 25 -23 0 -25 3 -25 50 0 47 2 50 25 50 20 0 25 -5
25 -25 0 -20 5 -25 25 -25 20 0 25 5 25 25 0 20 -5 25 -25 25 -20 0 -25 5 -25
25 0 20 5 25 25 25 20 0 25 5 25 25 0 20 -5 25 -25 25 -20 0 -25 5 -25 25 0
20 5 25 25 25 20 0 25 5 25 25 0 20 5 25 25 25 23 0 25 3 25 50 l0 50 75 0
c73 0 75 1 75 25 0 24 -2 25 -75 25 -73 0 -75 -1 -75 -25 0 -23 -3 -25 -50
-25 -47 0 -50 -2 -50 -25 0 -20 -5 -25 -25 -25 -20 0 -25 5 -25 25 0 20 -5 25
-25 25 -20 0 -25 5 -25 25 0 20 -5 25 -25 25 -24 0 -25 2 -25 75 l0 75 -50 0
-50 0 0 50 0 50 50 0 c47 0 50 -2 50 -25 0 -20 5 -25 25 -25 24 0 25 -2 25
-75 0 -73 1 -75 25 -75 24 0 25 2 25 75 0 73 1 75 25 75 20 0 25 5 25 25 0 20
5 25 25 25 20 0 25 5 25 25 0 23 3 25 50 25 47 0 50 -2 50 -25 0 -20 -5 -25
-25 -25 -20 0 -25 -5 -25 -25 0 -20 -5 -25 -25 -25 -24 0 -25 -2 -25 -75 0
-73 -1 -75 -25 -75 -20 0 -25 -5 -25 -25 0 -20 5 -25 25 -25 20 0 25 5 25 25
0 20 5 25 25 25 20 0 25 5 25 25 0 20 5 25 25 25 20 0 25 -5 25 -25 0 -20 5
-25 25 -25 20 0 25 5 25 25 0 23 3 25 50 25 47 0 50 -2 50 -25 0 -20 5 -25 25
-25 23 0 25 -3 25 -50 0 -47 2 -50 25 -50 20 0 25 -5 25 -25 0 -20 5 -25 25
-25 20 0 25 5 25 25 0 20 5 25 25 25 20 0 25 -5 25 -25 0 -24 2 -25 75 -25 73
0 75 1 75 25 0 20 5 25 25 25 20 0 25 -5 25 -25 0 -24 2 -25 75 -25 73 0 75 1
75 25 0 20 -5 25 -25 25 -20 0 -25 5 -25 25 0 24 -2 25 -75 25 -73 0 -75 1
-75 25 0 24 2 25 75 25 73 0 75 1 75 25 0 20 5 25 25 25 20 0 25 5 25 25 0 23
3 25 50 25 47 0 50 -2 50 -25 0 -20 -5 -25 -25 -25 -20 0 -25 -5 -25 -25 0
-20 -5 -25 -25 -25 -20 0 -25 -5 -25 -25 0 -20 5 -25 25 -25 23 0 25 -3 25
-50 0 -47 2 -50 25 -50 20 0 25 5 25 25 0 20 5 25 25 25 20 0 25 5 25 25 0 20
5 25 25 25 20 0 25 5 25 25 0 20 5 25 25 25 24 0 25 -2 25 -75 0 -60 3 -75 15
-75 12 0 15 -18 15 -100 l0 -100 35 0 c31 0 35 3 35 25 0 20 -5 25 -25 25 -20
0 -25 5 -25 25 0 20 5 25 25 25 20 0 25 5 25 25 0 20 -5 25 -25 25 -20 0 -25
5 -25 25 0 24 2 25 75 25 73 0 75 -1 75 -25 0 -20 -5 -25 -25 -25 -24 0 -25
-2 -25 -75 0 -73 1 -75 25 -75 20 0 25 -5 25 -25 0 -24 2 -25 75 -25 73 0 75
-1 75 -25 0 -23 -3 -25 -50 -25 -47 0 -50 -2 -50 -25 0 -24 -2 -25 -75 -25
-73 0 -75 1 -75 25 0 20 5 25 25 25 20 0 25 5 25 25 0 24 -3 25 -60 25 l-60 0
0 -75 0 -75 60 0 c57 0 60 -1 60 -25 0 -20 5 -25 25 -25 20 0 25 5 25 25 0 20
5 25 25 25 20 0 25 -5 25 -25 0 -20 5 -25 25 -25 20 0 25 5 25 25 0 20 -5 25
-25 25 -20 0 -25 5 -25 25 0 24 2 25 75 25 l75 0 0 -125 0 -125 -25 0 c-20 0
-25 5 -25 25 0 20 -5 25 -25 25 -20 0 -25 5 -25 25 0 20 -5 25 -25 25 -20 0
-25 -5 -25 -25 0 -20 -5 -25 -25 -25 -20 0 -25 5 -25 25 0 20 -5 25 -25 25
-23 0 -25 -3 -25 -50 0 -47 -2 -50 -25 -50 -20 0 -25 -5 -25 -25 0 -23 3 -25
50 -25 47 0 50 2 50 25 0 20 5 25 25 25 20 0 25 5 25 25 0 20 5 25 25 25 20 0
25 -5 25 -25 0 -20 5 -25 25 -25 20 0 25 -5 25 -25 0 -20 5 -25 25 -25 20 0
25 5 25 25 0 23 3 25 50 25 47 0 50 -2 50 -25 0 -20 -5 -25 -25 -25 -23 0 -25
-3 -25 -50 l0 -50 50 0 c47 0 50 -2 50 -25 0 -20 5 -25 25 -25 20 0 25 -5 25
-25 0 -24 -2 -25 -75 -25 -73 0 -75 1 -75 25 0 20 -5 25 -25 25 -20 0 -25 -5
-25 -25 0 -20 5 -25 25 -25 20 0 25 -5 25 -25 0 -20 -5 -25 -25 -25 -20 0 -25
-5 -25 -25 0 -20 5 -25 25 -25 20 0 25 -5 25 -25 0 -20 5 -25 25 -25 23 0 25
-3 25 -50 0 -47 -2 -50 -25 -50 -20 0 -25 5 -25 25 0 20 -5 25 -25 25 -20 0
-25 5 -25 25 0 23 -3 25 -50 25 -47 0 -50 2 -50 25 0 20 5 25 25 25 20 0 25 5
25 25 0 23 -3 25 -50 25 l-50 0 0 -50 0 -50 -50 0 -50 0 0 -50 c0 -47 2 -50
25 -50 23 0 25 -3 25 -50 0 -47 2 -50 25 -50 20 0 25 5 25 25 0 20 5 25 25 25
20 0 25 -5 25 -25 0 -20 5 -25 25 -25 20 0 25 -5 25 -25 0 -20 5 -25 25 -25
l25 0 0 -125 0 -125 75 0 c73 0 75 -1 75 -25 0 -20 5 -25 25 -25 24 0 25 -2
25 -75 0 -73 1 -75 25 -75 20 0 25 5 25 25 0 20 5 25 25 25 20 0 25 -5 25 -25
0 -20 5 -25 25 -25 20 0 25 5 25 25 0 20 5 25 25 25 20 0 25 5 25 25 0 20 -5
25 -25 25 -20 0 -25 5 -25 25 0 20 -5 25 -25 25 -20 0 -25 -5 -25 -25 0 -20
-5 -25 -25 -25 -20 0 -25 5 -25 25 0 20 -5 25 -25 25 -20 0 -25 5 -25 25 l0
25 100 0 100 0 0 25 c0 20 5 25 25 25 20 0 25 5 25 25 0 20 -5 25 -25 25 -20
0 -25 5 -25 25 0 20 5 25 25 25 20 0 25 5 25 25 0 20 -5 25 -25 25 -20 0 -25
5 -25 25 l0 25 -100 0 -100 0 0 25 c0 24 -2 25 -75 25 -73 0 -75 1 -75 25 0
24 2 25 75 25 73 0 75 1 75 25 0 23 3 25 50 25 47 0 50 -2 50 -25 0 -20 5 -25
25 -25 20 0 25 5 25 25 0 20 5 25 25 25 23 0 25 3 25 50 0 47 -2 50 -25 50
-20 0 -25 -5 -25 -25 0 -23 -3 -25 -50 -25 l-50 0 0 75 0 75 50 0 c47 0 50 -2
50 -25 0 -20 5 -25 25 -25 23 0 25 3 25 50 0 47 2 50 25 50 20 0 25 5 25 25 0
23 -3 25 -50 25 -47 0 -50 2 -50 25 0 20 5 25 25 25 23 0 25 3 25 50 0 47 2
50 25 50 20 0 25 5 25 25 0 20 -5 25 -25 25 -20 0 -25 5 -25 25 0 20 5 25 25
25 20 0 25 5 25 25 0 20 -5 25 -25 25 -24 0 -25 2 -25 75 0 73 1 75 25 75 20
0 25 5 25 25 0 20 -5 25 -25 25 -20 0 -25 5 -25 25 0 20 5 25 25 25 20 0 25 5
25 25 0 20 -5 25 -25 25 -20 0 -25 5 -25 25 0 20 5 25 25 25 20 0 25 5 25 25
0 20 -5 25 -25 25 -20 0 -25 -5 -25 -25 0 -20 -5 -25 -25 -25 -23 0 -25 -3
-25 -50 l0 -50 -75 0 c-73 0 -75 1 -75 25 0 20 5 25 25 25 20 0 25 5 25 25 0
20 -5 25 -25 25 -20 0 -25 5 -25 25 0 20 5 25 25 25 20 0 25 5 25 25 0 20 5
25 25 25 20 0 25 -5 25 -25 0 -20 5 -25 25 -25 20 0 25 5 25 25 0 20 -5 25
-25 25 -20 0 -25 5 -25 25 0 20 5 25 25 25 20 0 25 5 25 25 0 23 3 25 50 25
l50 0 0 75 0 75 -50 0 c-47 0 -50 -2 -50 -25 0 -20 5 -25 25 -25 20 0 25 -5
25 -25 0 -20 -5 -25 -25 -25 -20 0 -25 -5 -25 -25 0 -20 -5 -25 -25 -25 -20 0
-25 5 -25 25 0 20 -5 25 -25 25 -20 0 -25 5 -25 25 0 20 5 25 25 25 20 0 25 5
25 25 0 20 -5 25 -25 25 -20 0 -25 5 -25 25 0 20 5 25 25 25 20 0 25 5 25 25
0 20 5 25 25 25 20 0 25 -5 25 -25 0 -23 3 -25 50 -25 47 0 50 2 50 25 0 20
-5 25 -25 25 -20 0 -25 5 -25 25 0 20 5 25 25 25 20 0 25 5 25 25 0 20 -5 25
-25 25 -20 0 -25 5 -25 25 0 20 5 25 25 25 23 0 25 3 25 50 l0 50 -75 0 c-73
0 -75 -1 -75 -25 0 -23 3 -25 50 -25 47 0 50 -2 50 -25 0 -23 -3 -25 -50 -25
-47 0 -50 -2 -50 -25 0 -23 3 -25 50 -25 47 0 50 -2 50 -25 l0 -25 -125 0
-125 0 0 -50 c0 -47 2 -50 25 -50 23 0 25 -3 25 -50 0 -47 -2 -50 -25 -50 -23
0 -25 -3 -25 -50 0 -47 -2 -50 -25 -50 -20 0 -25 -5 -25 -25 0 -20 -5 -25 -25
-25 -20 0 -25 5 -25 25 0 23 -3 25 -50 25 -47 0 -50 2 -50 25 0 20 -5 25 -25
25 -23 0 -25 3 -25 50 l0 50 50 0 c47 0 50 2 50 25 0 20 -5 25 -25 25 -20 0
-25 5 -25 25 0 20 5 25 25 25 20 0 25 5 25 25 0 20 -5 25 -25 25 -20 0 -25 5
-25 25 0 23 3 25 50 25 47 0 50 -2 50 -25 0 -20 5 -25 25 -25 20 0 25 5 25 25
0 20 5 25 25 25 20 0 25 5 25 25 0 20 5 25 25 25 20 0 25 -5 25 -25 0 -20 5
-25 25 -25 23 0 25 3 25 50 0 47 -2 50 -25 50 -20 0 -25 5 -25 25 0 24 -2 25
-75 25 l-75 0 0 50 c0 47 -2 50 -25 50 -20 0 -25 -5 -25 -25 0 -20 -5 -25 -25
-25 l-25 0 0 100 0 100 25 0 c20 0 25 -5 25 -25 0 -20 5 -25 25 -25 20 0 25 5
25 25 0 20 -5 25 -25 25 -23 0 -25 3 -25 50 0 47 -2 50 -25 50 -20 0 -25 5
-25 25 0 23 -3 25 -50 25 -47 0 -50 -2 -50 -25 0 -20 -5 -25 -25 -25 -20 0
-25 -5 -25 -25 0 -20 -5 -25 -25 -25 -20 0 -25 5 -25 25 0 23 -3 25 -50 25
-47 0 -50 2 -50 25 0 20 -5 25 -25 25 -20 0 -25 -5 -25 -25 0 -20 5 -25 25
-25 20 0 25 -5 25 -25 0 -20 -5 -25 -25 -25 -20 0 -25 -5 -25 -25 0 -20 -5
-25 -25 -25 -20 0 -25 5 -25 25 0 23 -3 25 -50 25 -47 0 -50 -2 -50 -25 0 -20
5 -25 25 -25 20 0 25 -5 25 -25 0 -20 -5 -25 -25 -25 -20 0 -25 -5 -25 -25 0
-23 -3 -25 -50 -25 -47 0 -50 2 -50 25 0 20 5 25 25 25 20 0 25 5 25 25 0 23
-3 25 -50 25 l-50 0 0 75 0 75 -50 0 c-47 0 -50 -2 -50 -25 0 -20 5 -25 25
-25 23 0 25 -3 25 -50 0 -47 2 -50 25 -50 20 0 25 -5 25 -25 0 -23 -3 -25 -50
-25 -47 0 -50 2 -50 25 0 20 -5 25 -25 25 -20 0 -25 -5 -25 -25 0 -23 -3 -25
-50 -25 -47 0 -50 2 -50 25 0 20 5 25 25 25 23 0 25 3 25 50 0 47 2 50 25 50
20 0 25 5 25 25 l0 25 -100 0 -100 0 0 -25 c0 -20 -5 -25 -25 -25 -20 0 -25 5
-25 25 0 23 -3 25 -50 25 -47 0 -50 -2 -50 -25 0 -20 -5 -25 -25 -25 -20 0
-25 5 -25 25 0 20 -5 25 -25 25 -20 0 -25 -5 -25 -25 0 -20 -5 -25 -25 -25
-23 0 -25 -3 -25 -50 0 -47 2 -50 25 -50 23 0 25 -3 25 -50 0 -47 -2 -50 -25
-50 -20 0 -25 -5 -25 -25 0 -20 -5 -25 -25 -25 -23 0 -25 -3 -25 -50 l0 -50
50 0 c47 0 50 -2 50 -25 0 -20 5 -25 25 -25 20 0 25 -5 25 -25 l0 -25 -200 0
-200 0 0 25 c0 20 5 25 25 25 20 0 25 5 25 25 0 23 -3 25 -50 25 -47 0 -50 -2
-50 -25 0 -20 -5 -25 -25 -25 l-25 0 0 100 0 100 25 0 c23 0 25 -3 25 -50 0
-47 2 -50 25 -50 20 0 25 5 25 25 0 20 5 25 25 25 20 0 25 -5 25 -25 0 -20 5
-25 25 -25 20 0 25 -5 25 -25 0 -20 5 -25 25 -25 20 0 25 -5 25 -25 0 -20 5
-25 25 -25 20 0 25 5 25 25 0 20 -5 25 -25 25 -20 0 -25 5 -25 25 0 20 5 25
25 25 20 0 25 5 25 25 0 20 -5 25 -25 25 -20 0 -25 -5 -25 -25 0 -20 -5 -25
-25 -25 -20 0 -25 5 -25 25 0 20 -5 25 -25 25 -20 0 -25 5 -25 25 0 23 3 25
50 25 47 0 50 2 50 25 0 20 5 25 25 25 20 0 25 -5 25 -25 0 -20 5 -25 25 -25
23 0 25 3 25 50 0 47 -2 50 -25 50 -20 0 -25 5 -25 25 0 20 5 25 25 25 20 0
25 5 25 25 0 23 -3 25 -50 25 -47 0 -50 2 -50 25 0 20 -5 25 -25 25 -20 0 -25
-5 -25 -25 0 -20 5 -25 25 -25 23 0 25 -3 25 -50 0 -47 -2 -50 -25 -50 -20 0
-25 5 -25 25 0 20 -5 25 -25 25 -20 0 -25 -5 -25 -25 0 -20 5 -25 25 -25 20 0
25 -5 25 -25 0 -20 -5 -25 -25 -25 -20 0 -25 -5 -25 -25 0 -20 -5 -25 -25 -25
-20 0 -25 5 -25 25 0 20 -5 25 -25 25 -20 0 -25 5 -25 25 0 20 5 25 25 25 20
0 25 5 25 25 0 20 -5 25 -25 25 -20 0 -25 -5 -25 -25 0 -20 -5 -25 -25 -25
-23 0 -25 3 -25 50 0 47 2 50 25 50 20 0 25 5 25 25 0 23 -3 25 -50 25 l-50 0
0 -75z m550 0 c0 -20 5 -25 25 -25 20 0 25 -5 25 -25 0 -20 5 -25 25 -25 20 0
25 5 25 25 0 20 5 25 25 25 20 0 25 -5 25 -25 0 -20 5 -25 25 -25 23 0 25 3
25 50 l0 50 50 0 50 0 0 -50 c0 -47 -2 -50 -25 -50 -20 0 -25 -5 -25 -25 0
-20 -5 -25 -25 -25 -23 0 -25 -3 -25 -50 0 -47 2 -50 25 -50 23 0 25 -3 25
-50 0 -47 -2 -50 -25 -50 -23 0 -25 3 -25 50 0 47 -2 50 -25 50 -23 0 -25 -3
-25 -50 0 -47 -2 -50 -25 -50 -20 0 -25 -5 -25 -25 0 -23 -3 -25 -50 -25 -47
0 -50 2 -50 25 0 20 -5 25 -25 25 -20 0 -25 5 -25 25 0 20 -5 25 -25 25 -20 0
-25 5 -25 25 0 20 5 25 25 25 20 0 25 -5 25 -25 0 -20 5 -25 25 -25 20 0 25 5
25 25 0 20 5 25 25 25 23 0 25 3 25 50 0 47 -2 50 -25 50 -23 0 -25 3 -25 50
0 47 -2 50 -25 50 -20 0 -25 5 -25 25 0 20 5 25 25 25 20 0 25 -5 25 -25z
m1150 0 c0 -20 5 -25 25 -25 20 0 25 -5 25 -25 0 -23 -3 -25 -50 -25 -47 0
-50 -2 -50 -25 0 -20 -5 -25 -25 -25 l-25 0 0 -100 0 -100 25 0 c20 0 25 -5
25 -25 0 -20 5 -25 25 -25 20 0 25 5 25 25 0 20 5 25 25 25 20 0 25 -5 25 -25
0 -23 3 -25 50 -25 47 0 50 -2 50 -25 0 -20 5 -25 25 -25 20 0 25 5 25 25 0
20 5 25 25 25 20 0 25 -5 25 -25 0 -20 -5 -25 -25 -25 -20 0 -25 -5 -25 -25 0
-20 -5 -25 -25 -25 -20 0 -25 5 -25 25 0 23 -3 25 -50 25 -47 0 -50 -2 -50
-25 0 -20 -5 -25 -25 -25 -20 0 -25 5 -25 25 0 20 -5 25 -25 25 -20 0 -25 5
-25 25 0 20 -5 25 -25 25 -23 0 -25 -3 -25 -50 0 -47 2 -50 25 -50 20 0 25 -5
25 -25 0 -20 -5 -25 -25 -25 -20 0 -25 -5 -25 -25 0 -20 -5 -25 -25 -25 -20 0
-25 -5 -25 -25 0 -20 5 -25 25 -25 20 0 25 -5 25 -25 0 -20 -5 -25 -25 -25
-20 0 -25 -5 -25 -25 0 -23 3 -25 50 -25 47 0 50 -2 50 -25 0 -23 -3 -25 -50
-25 -47 0 -50 -2 -50 -25 0 -23 -3 -25 -50 -25 -47 0 -50 2 -50 25 0 23 3 25
50 25 47 0 50 2 50 25 0 24 -2 25 -75 25 -73 0 -75 1 -75 25 0 20 -5 25 -25
25 -23 0 -25 3 -25 50 0 47 -2 50 -25 50 -23 0 -25 3 -25 50 0 47 -2 50 -25
50 -23 0 -25 -3 -25 -50 0 -47 -2 -50 -25 -50 -23 0 -25 3 -25 50 0 47 -2 50
-25 50 -20 0 -25 -5 -25 -25 0 -20 -5 -25 -25 -25 -20 0 -25 5 -25 25 0 20 -5
25 -25 25 -24 0 -25 2 -25 75 0 73 1 75 25 75 20 0 25 5 25 25 0 20 -5 25 -25
25 -23 0 -25 3 -25 50 l0 50 50 0 c47 0 50 -2 50 -25 0 -20 5 -25 25 -25 20 0
25 -5 25 -25 0 -20 5 -25 25 -25 20 0 25 5 25 25 0 20 5 25 25 25 20 0 25 -5
25 -25 0 -20 5 -25 25 -25 20 0 25 5 25 25 0 20 5 25 25 25 20 0 25 5 25 25 0
23 -3 25 -50 25 -47 0 -50 2 -50 25 0 23 3 25 50 25 47 0 50 2 50 25 0 23 3
25 50 25 47 0 50 -2 50 -25 0 -20 5 -25 25 -25 20 0 25 5 25 25 0 20 5 25 25
25 20 0 25 5 25 25 0 20 5 25 25 25 20 0 25 5 25 25 0 20 5 25 25 25 20 0 25
-5 25 -25z m-700 -250 l0 -75 -75 0 -75 0 0 75 0 75 75 0 75 0 0 -75z m700 0
c0 -20 -5 -25 -25 -25 -20 0 -25 5 -25 25 0 20 5 25 25 25 20 0 25 -5 25 -25z
m-1850 -150 c0 -20 -5 -25 -25 -25 -20 0 -25 5 -25 25 0 20 5 25 25 25 20 0
25 -5 25 -25z m1150 -25 c0 -47 -2 -50 -25 -50 -20 0 -25 -5 -25 -25 0 -23 -3
-25 -50 -25 -47 0 -50 2 -50 25 0 23 3 25 50 25 47 0 50 2 50 25 l0 25 -100 0
-100 0 0 -25 c0 -20 5 -25 25 -25 23 0 25 -3 25 -50 0 -47 -2 -50 -25 -50 -20
0 -25 -5 -25 -25 0 -23 3 -25 50 -25 47 0 50 -2 50 -25 0 -20 5 -25 25 -25 23
0 25 3 25 50 0 47 2 50 25 50 20 0 25 -5 25 -25 0 -23 3 -25 50 -25 47 0 50 2
50 25 0 20 -5 25 -25 25 -20 0 -25 5 -25 25 0 20 5 25 25 25 20 0 25 -5 25
-25 0 -23 3 -25 50 -25 47 0 50 -2 50 -25 0 -23 -3 -25 -50 -25 -47 0 -50 -2
-50 -25 0 -23 -3 -25 -50 -25 -47 0 -50 -2 -50 -25 0 -20 -5 -25 -25 -25 -23
0 -25 -3 -25 -50 0 -47 -2 -50 -25 -50 -24 0 -25 2 -25 75 0 73 -1 75 -25 75
-23 0 -25 -3 -25 -50 0 -47 -2 -50 -25 -50 -24 0 -25 2 -25 75 0 73 -1 75 -25
75 -23 0 -25 -3 -25 -50 0 -47 -2 -50 -25 -50 -20 0 -25 5 -25 25 0 20 -5 25
-25 25 -20 0 -25 5 -25 25 0 20 -5 25 -25 25 -20 0 -25 5 -25 25 0 23 -3 25
-50 25 -47 0 -50 -2 -50 -25 0 -20 -5 -25 -25 -25 -20 0 -25 5 -25 25 0 20 5
25 25 25 20 0 25 5 25 25 0 20 5 25 25 25 20 0 25 5 25 25 0 20 5 25 25 25 20
0 25 5 25 25 0 20 5 25 25 25 20 0 25 -5 25 -25 0 -20 5 -25 25 -25 20 0 25
-5 25 -25 0 -20 5 -25 25 -25 20 0 25 -5 25 -25 0 -20 5 -25 25 -25 23 0 25 3
25 50 0 47 -2 50 -25 50 -23 0 -25 3 -25 50 l0 50 150 0 150 0 0 -50z m-1250
-25 c0 -20 5 -25 25 -25 20 0 25 -5 25 -25 0 -20 -5 -25 -25 -25 -20 0 -25 5
-25 25 0 20 -5 25 -25 25 -20 0 -25 5 -25 25 0 20 5 25 25 25 20 0 25 -5 25
-25z m400 0 c0 -23 3 -25 50 -25 l50 0 0 -50 c0 -47 -2 -50 -25 -50 -20 0 -25
5 -25 25 0 20 -5 25 -25 25 -20 0 -25 5 -25 25 0 23 -3 25 -50 25 -47 0 -50 2
-50 25 0 23 3 25 50 25 47 0 50 -2 50 -25z m-150 -50 c0 -23 -3 -25 -50 -25
-47 0 -50 2 -50 25 0 23 3 25 50 25 47 0 50 -2 50 -25z m-50 -100 c0 -20 5
-25 25 -25 20 0 25 -5 25 -25 0 -23 3 -25 50 -25 47 0 50 -2 50 -25 0 -23 -3
-25 -50 -25 -47 0 -50 2 -50 25 0 20 -5 25 -25 25 -20 0 -25 -5 -25 -25 0 -20
-5 -25 -25 -25 -20 0 -25 5 -25 25 0 20 5 25 25 25 20 0 25 5 25 25 0 20 -5
25 -25 25 -20 0 -25 5 -25 25 0 20 5 25 25 25 20 0 25 -5 25 -25z m1750 -50
c0 -20 -5 -25 -25 -25 -20 0 -25 5 -25 25 0 20 5 25 25 25 20 0 25 -5 25 -25z
m-400 -75 c0 -47 -2 -50 -25 -50 -23 0 -25 3 -25 50 0 47 2 50 25 50 23 0 25
-3 25 -50z m-1250 -75 c0 -20 5 -25 25 -25 20 0 25 -5 25 -25 0 -20 5 -25 25
-25 20 0 25 5 25 25 0 20 5 25 25 25 20 0 25 -5 25 -25 0 -20 5 -25 25 -25 20
0 25 -5 25 -25 0 -20 -5 -25 -25 -25 -20 0 -25 5 -25 25 0 20 -5 25 -25 25
-23 0 -25 -3 -25 -50 l0 -50 50 0 c47 0 50 -2 50 -25 0 -20 5 -25 25 -25 20 0
25 -5 25 -25 0 -20 -5 -25 -25 -25 -20 0 -25 -5 -25 -25 0 -24 -2 -25 -75 -25
-73 0 -75 1 -75 25 0 23 -3 25 -50 25 -47 0 -50 -2 -50 -25 0 -23 -3 -25 -50
-25 -47 0 -50 2 -50 25 0 23 3 25 50 25 47 0 50 2 50 25 0 20 5 25 25 25 20 0
25 5 25 25 0 20 5 25 25 25 23 0 25 3 25 50 l0 50 -50 0 -50 0 0 50 c0 47 2
50 25 50 20 0 25 -5 25 -25z m1600 -50 c0 -20 -5 -25 -25 -25 -20 0 -25 5 -25
25 0 20 5 25 25 25 20 0 25 -5 25 -25z m100 0 c0 -23 3 -25 50 -25 47 0 50 -2
50 -25 0 -24 -2 -25 -75 -25 l-75 0 0 50 c0 47 2 50 25 50 20 0 25 -5 25 -25z
m350 0 c0 -20 -5 -25 -25 -25 -20 0 -25 5 -25 25 0 20 5 25 25 25 20 0 25 -5
25 -25z m-2150 -50 c0 -20 -5 -25 -25 -25 -20 0 -25 5 -25 25 0 20 5 25 25 25
20 0 25 -5 25 -25z m400 0 c0 -20 -5 -25 -25 -25 -20 0 -25 5 -25 25 0 20 5
25 25 25 20 0 25 -5 25 -25z m1650 0 c0 -20 -5 -25 -25 -25 -23 0 -25 -3 -25
-50 0 -47 2 -50 25 -50 20 0 25 -5 25 -25 0 -20 -5 -25 -25 -25 -20 0 -25 -5
-25 -25 0 -20 -5 -25 -25 -25 -20 0 -25 5 -25 25 0 20 5 25 25 25 20 0 25 5
25 25 l0 25 -100 0 -100 0 0 -25 c0 -20 5 -25 25 -25 20 0 25 -5 25 -25 0 -20
-5 -25 -25 -25 -20 0 -25 5 -25 25 0 20 -5 25 -25 25 -20 0 -25 5 -25 25 0 20
-5 25 -25 25 -20 0 -25 -5 -25 -25 0 -20 -5 -25 -25 -25 -24 0 -25 2 -25 75 0
73 1 75 25 75 20 0 25 -5 25 -25 0 -20 5 -25 25 -25 20 0 25 -5 25 -25 0 -20
5 -25 25 -25 20 0 25 5 25 25 0 24 2 25 75 25 l75 0 0 50 0 50 50 0 c47 0 50
-2 50 -25z m-2000 -350 l0 -75 -75 0 -75 0 0 75 0 75 75 0 75 0 0 -75z m2000
0 l0 -75 -75 0 -75 0 0 75 0 75 75 0 75 0 0 -75z m200 50 c0 -20 -5 -25 -25
-25 -24 0 -25 -2 -25 -75 0 -73 -1 -75 -25 -75 -20 0 -25 -5 -25 -25 0 -20 5
-25 25 -25 20 0 25 -5 25 -25 0 -20 5 -25 25 -25 20 0 25 -5 25 -25 0 -23 -3
-25 -50 -25 -47 0 -50 2 -50 25 0 20 -5 25 -25 25 l-25 0 0 150 0 150 75 0
c73 0 75 -1 75 -25z m-2350 -200 c0 -20 -5 -25 -25 -25 -20 0 -25 -5 -25 -25
l0 -25 100 0 100 0 0 -25 c0 -23 -3 -25 -50 -25 -47 0 -50 -2 -50 -25 0 -20
-5 -25 -25 -25 -20 0 -25 5 -25 25 0 24 -2 25 -75 25 -73 0 -75 1 -75 25 0 20
5 25 25 25 20 0 25 5 25 25 0 20 5 25 25 25 20 0 25 5 25 25 0 20 5 25 25 25
20 0 25 -5 25 -25z m100 0 c0 -20 -5 -25 -25 -25 -20 0 -25 5 -25 25 0 20 5
25 25 25 20 0 25 -5 25 -25z m450 0 c0 -20 -5 -25 -25 -25 -20 0 -25 -5 -25
-25 0 -20 -5 -25 -25 -25 -20 0 -25 5 -25 25 0 20 5 25 25 25 20 0 25 5 25 25
0 20 5 25 25 25 20 0 25 -5 25 -25z m1600 -50 c0 -73 1 -75 25 -75 20 0 25 -5
25 -25 0 -20 -5 -25 -25 -25 -20 0 -25 5 -25 25 0 20 -5 25 -25 25 -20 0 -25
5 -25 25 0 20 -5 25 -25 25 -20 0 -25 5 -25 25 0 20 -5 25 -25 25 -20 0 -25 5
-25 25 0 24 2 25 75 25 l75 0 0 -75z m100 -200 c0 -20 5 -25 25 -25 20 0 25
-5 25 -25 0 -20 -5 -25 -25 -25 -20 0 -25 5 -25 25 0 23 -3 25 -50 25 -47 0
-50 2 -50 25 0 23 3 25 50 25 47 0 50 -2 50 -25z m-2000 -100 c0 -20 -5 -25
-25 -25 -20 0 -25 5 -25 25 0 20 5 25 25 25 20 0 25 -5 25 -25z m1950 0 c0
-20 -5 -25 -25 -25 -20 0 -25 5 -25 25 0 20 5 25 25 25 20 0 25 -5 25 -25z
m-2100 -50 c0 -20 5 -25 25 -25 20 0 25 -5 25 -25 0 -20 5 -25 25 -25 20 0 25
5 25 25 0 23 3 25 50 25 47 0 50 2 50 25 0 23 3 25 50 25 47 0 50 -2 50 -25 0
-23 3 -25 50 -25 47 0 50 2 50 25 0 20 5 25 25 25 23 0 25 -3 25 -50 0 -47 -2
-50 -25 -50 -20 0 -25 -5 -25 -25 0 -24 2 -25 75 -25 73 0 75 -1 75 -25 0 -23
-3 -25 -50 -25 l-50 0 0 -50 c0 -47 2 -50 25 -50 20 0 25 5 25 25 0 23 3 25
50 25 l50 0 0 75 0 75 -50 0 -50 0 0 50 0 50 50 0 c47 0 50 -2 50 -25 0 -23 3
-25 50 -25 l50 0 0 -50 c0 -47 2 -50 25 -50 20 0 25 5 25 25 0 20 5 25 25 25
l25 0 0 -100 0 -100 25 0 c23 0 25 3 25 50 0 47 2 50 25 50 23 0 25 -3 25 -50
l0 -50 50 0 c47 0 50 -2 50 -25 0 -23 -3 -25 -50 -25 -47 0 -50 2 -50 25 0 20
-5 25 -25 25 -23 0 -25 -3 -25 -50 0 -47 -2 -50 -25 -50 -23 0 -25 3 -25 50 0
47 -2 50 -25 50 -20 0 -25 5 -25 25 0 20 -5 25 -25 25 -20 0 -25 -5 -25 -25 0
-20 -5 -25 -25 -25 -20 0 -25 -5 -25 -25 0 -20 5 -25 25 -25 20 0 25 -5 25
-25 0 -20 -5 -25 -25 -25 -20 0 -25 -5 -25 -25 0 -23 -3 -25 -50 -25 l-50 0 0
50 0 50 -75 0 c-73 0 -75 1 -75 25 0 20 -5 25 -25 25 -20 0 -25 -5 -25 -25 0
-23 -3 -25 -50 -25 -47 0 -50 2 -50 25 0 20 5 25 25 25 20 0 25 5 25 25 0 20
5 25 25 25 20 0 25 5 25 25 0 20 -5 25 -25 25 -20 0 -25 5 -25 25 0 20 5 25
25 25 20 0 25 5 25 25 0 23 -3 25 -50 25 l-50 0 0 -50 c0 -47 -2 -50 -25 -50
-23 0 -25 3 -25 50 0 47 -2 50 -25 50 -20 0 -25 -5 -25 -25 l0 -25 -100 0
-100 0 0 25 c0 23 -3 25 -50 25 -47 0 -50 2 -50 25 0 23 3 25 50 25 47 0 50 2
50 25 0 20 5 25 25 25 20 0 25 -5 25 -25z m2000 0 c0 -20 5 -25 25 -25 20 0
25 -5 25 -25 0 -23 -3 -25 -50 -25 -47 0 -50 2 -50 25 0 20 -5 25 -25 25 -20
0 -25 5 -25 25 0 23 3 25 50 25 47 0 50 -2 50 -25z m-250 -100 c0 -20 -5 -25
-25 -25 -20 0 -25 -5 -25 -25 0 -20 -5 -25 -25 -25 -20 0 -25 5 -25 25 0 20 5
25 25 25 20 0 25 5 25 25 0 20 5 25 25 25 20 0 25 -5 25 -25z m100 -50 c0 -20
5 -25 25 -25 20 0 25 -5 25 -25 0 -20 -5 -25 -25 -25 -20 0 -25 5 -25 25 0 20
-5 25 -25 25 -20 0 -25 5 -25 25 0 20 5 25 25 25 20 0 25 -5 25 -25z m200 0
c0 -20 -5 -25 -25 -25 -20 0 -25 5 -25 25 0 20 5 25 25 25 20 0 25 -5 25 -25z
m-650 -50 c0 -20 -5 -25 -25 -25 -20 0 -25 -5 -25 -25 0 -20 5 -25 25 -25 20
0 25 -5 25 -25 0 -23 -3 -25 -50 -25 -47 0 -50 -2 -50 -25 0 -20 -5 -25 -25
-25 -20 0 -25 -5 -25 -25 0 -20 -5 -25 -25 -25 -23 0 -25 -3 -25 -50 0 -47 -2
-50 -25 -50 -20 0 -25 -5 -25 -25 0 -20 -5 -25 -25 -25 -24 0 -25 -2 -25 -75
0 -73 -1 -75 -25 -75 -23 0 -25 3 -25 50 0 47 -2 50 -25 50 -20 0 -25 -5 -25
-25 0 -23 -3 -25 -50 -25 -47 0 -50 -2 -50 -25 0 -20 -5 -25 -25 -25 -20 0
-25 5 -25 25 0 20 -5 25 -25 25 -20 0 -25 5 -25 25 0 20 -5 25 -25 25 -23 0
-25 3 -25 50 0 47 -2 50 -25 50 -23 0 -25 3 -25 50 0 47 2 50 25 50 20 0 25
-5 25 -25 0 -23 3 -25 50 -25 47 0 50 -2 50 -25 0 -20 -5 -25 -25 -25 -20 0
-25 -5 -25 -25 0 -20 5 -25 25 -25 20 0 25 -5 25 -25 0 -20 5 -25 25 -25 20 0
25 5 25 25 l0 25 100 0 100 0 0 125 0 125 25 0 c23 0 25 -3 25 -50 0 -47 2
-50 25 -50 20 0 25 5 25 25 0 20 5 25 25 25 24 0 25 2 25 75 0 73 1 75 25 75
20 0 25 5 25 25 0 23 3 25 50 25 47 0 50 -2 50 -25z m-1150 -200 c0 -20 5 -25
25 -25 20 0 25 -5 25 -25 0 -20 5 -25 25 -25 20 0 25 5 25 25 0 20 5 25 25 25
20 0 25 -5 25 -25 0 -20 -5 -25 -25 -25 -20 0 -25 -5 -25 -25 0 -20 5 -25 25
-25 23 0 25 -3 25 -50 0 -47 2 -50 25 -50 20 0 25 5 25 25 0 20 5 25 25 25 20
0 25 -5 25 -25 0 -20 -5 -25 -25 -25 -20 0 -25 -5 -25 -25 0 -20 5 -25 25 -25
20 0 25 -5 25 -25 0 -20 -5 -25 -25 -25 -20 0 -25 5 -25 25 0 20 -5 25 -25 25
-20 0 -25 5 -25 25 0 20 -5 25 -25 25 -20 0 -25 -5 -25 -25 0 -20 -5 -25 -25
-25 -20 0 -25 5 -25 25 0 20 5 25 25 25 23 0 25 3 25 50 l0 50 -75 0 c-73 0
-75 1 -75 25 0 20 -5 25 -25 25 -20 0 -25 5 -25 25 0 20 5 25 25 25 20 0 25 5
25 25 0 20 5 25 25 25 20 0 25 -5 25 -25z m800 -50 l0 -75 -75 0 -75 0 0 75 0
75 75 0 75 0 0 -75z m1000 0 l0 -75 -75 0 -75 0 0 75 0 75 75 0 75 0 0 -75z
m150 0 l0 -75 -50 0 c-47 0 -50 2 -50 25 0 20 5 25 25 25 23 0 25 3 25 50 0
47 2 50 25 50 24 0 25 -2 25 -75z m-550 -50 c0 -23 3 -25 50 -25 47 0 50 -2
50 -25 0 -23 -3 -25 -50 -25 -47 0 -50 -2 -50 -25 0 -20 5 -25 25 -25 20 0 25
-5 25 -25 0 -20 5 -25 25 -25 20 0 25 5 25 25 0 20 5 25 25 25 20 0 25 -5 25
-25 0 -20 5 -25 25 -25 20 0 25 -5 25 -25 0 -20 -5 -25 -25 -25 -20 0 -25 5
-25 25 0 20 -5 25 -25 25 -20 0 -25 -5 -25 -25 0 -20 -5 -25 -25 -25 -20 0
-25 5 -25 25 0 20 -5 25 -25 25 -20 0 -25 -5 -25 -25 0 -20 -5 -25 -25 -25
-20 0 -25 5 -25 25 0 23 -3 25 -50 25 -47 0 -50 2 -50 25 0 20 5 25 25 25 23
0 25 3 25 50 0 47 2 50 25 50 20 0 25 5 25 25 0 20 5 25 25 25 20 0 25 -5 25
-25z m-250 -100 c0 -20 -5 -25 -25 -25 -20 0 -25 5 -25 25 0 20 5 25 25 25 20
0 25 -5 25 -25z m-200 -75 c0 -47 -2 -50 -25 -50 -23 0 -25 3 -25 50 0 47 2
50 25 50 23 0 25 -3 25 -50z m250 -25 c0 -20 -5 -25 -25 -25 -20 0 -25 5 -25
25 0 20 5 25 25 25 20 0 25 -5 25 -25z m750 0 c0 -20 -5 -25 -25 -25 -20 0
-25 5 -25 25 0 20 5 25 25 25 20 0 25 -5 25 -25z"/>
<path d="M1220 2655 c0 -20 5 -25 25 -25 20 0 25 5 25 25 0 20 -5 25 -25 25
-20 0 -25 -5 -25 -25z"/>
<path d="M1170 2505 c0 -20 -5 -25 -25 -25 -20 0 -25 -5 -25 -25 0 -23 3 -25
50 -25 l50 0 0 50 c0 47 -2 50 -25 50 -20 0 -25 -5 -25 -25z"/>
<path d="M2020 2555 c0 -20 -5 -25 -25 -25 -23 0 -25 -3 -25 -50 l0 -50 -50 0
c-47 0 -50 -2 -50 -25 0 -20 5 -25 25 -25 24 0 25 -2 25 -75 0 -73 1 -75 25
-75 24 0 25 -2 25 -75 l0 -75 75 0 c73 0 75 1 75 25 0 23 -3 25 -50 25 l-50 0
0 50 c0 47 -2 50 -25 50 -20 0 -25 5 -25 25 0 20 5 25 25 25 20 0 25 5 25 25
0 20 5 25 25 25 20 0 25 -5 25 -25 0 -20 5 -25 25 -25 20 0 25 -5 25 -25 0
-20 5 -25 25 -25 20 0 25 5 25 25 0 20 -5 25 -25 25 -20 0 -25 5 -25 25 0 20
-5 25 -25 25 -20 0 -25 5 -25 25 0 20 -5 25 -25 25 -24 0 -25 2 -25 75 0 73 1
75 25 75 20 0 25 -5 25 -25 0 -20 5 -25 25 -25 23 0 25 3 25 50 l0 50 -50 0
c-47 0 -50 -2 -50 -25z m0 -200 c0 -20 -5 -25 -25 -25 -20 0 -25 5 -25 25 0
20 5 25 25 25 20 0 25 -5 25 -25z"/>
<path d="M1670 2505 c0 -20 5 -25 25 -25 20 0 25 -5 25 -25 0 -20 -5 -25 -25
-25 -20 0 -25 -5 -25 -25 0 -20 5 -25 25 -25 20 0 25 -5 25 -25 0 -20 -5 -25
-25 -25 -20 0 -25 -5 -25 -25 0 -20 5 -25 25 -25 20 0 25 5 25 25 0 20 5 25
25 25 20 0 25 -5 25 -25 0 -20 5 -25 25 -25 24 0 25 2 25 75 0 73 -1 75 -25
75 -20 0 -25 5 -25 25 0 20 -5 25 -25 25 -20 0 -25 5 -25 25 0 20 -5 25 -25
25 -20 0 -25 -5 -25 -25z"/>
<path d="M2270 2355 c0 -20 5 -25 25 -25 20 0 25 5 25 25 0 20 -5 25 -25 25
-20 0 -25 -5 -25 -25z"/>
<path d="M1470 2505 c0 -20 5 -25 25 -25 20 0 25 5 25 25 0 20 -5 25 -25 25
-20 0 -25 -5 -25 -25z"/>
<path d="M1120 2230 c0 -47 2 -50 25 -50 20 0 25 -5 25 -25 0 -23 3 -25 50
-25 47 0 50 2 50 25 0 20 -5 25 -25 25 -20 0 -25 5 -25 25 0 20 -5 25 -25 25
-20 0 -25 5 -25 25 0 20 -5 25 -25 25 -23 0 -25 -3 -25 -50z"/>
<path d="M670 1730 c0 -47 2 -50 25 -50 23 0 25 3 25 50 0 47 -2 50 -25 50
-23 0 -25 -3 -25 -50z"/>
<path d="M470 1505 c0 -20 5 -25 25 -25 20 0 25 5 25 25 0 20 -5 25 -25 25
-20 0 -25 -5 -25 -25z"/>
<path d="M2470 1505 c0 -20 5 -25 25 -25 20 0 25 5 25 25 0 20 -5 25 -25 25
-20 0 -25 -5 -25 -25z"/>
<path d="M470 905 c0 -20 5 -25 25 -25 20 0 25 5 25 25 0 20 -5 25 -25 25 -20
0 -25 -5 -25 -25z"/>
<path d="M870 805 c0 -20 5 -25 25 -25 20 0 25 5 25 25 0 20 -5 25 -25 25 -20
0 -25 -5 -25 -25z"/>
<path d="M1170 780 c0 -47 -2 -50 -25 -50 -20 0 -25 -5 -25 -25 0 -20 5 -25
25 -25 20 0 25 5 25 25 0 20 5 25 25 25 23 0 25 3 25 50 0 47 -2 50 -25 50
-23 0 -25 -3 -25 -50z"/>
<path d="M720 505 c0 -20 5 -25 25 -25 20 0 25 5 25 25 0 20 -5 25 -25 25 -20
0 -25 -5 -25 -25z"/>
<path d="M1470 505 c0 -20 5 -25 25 -25 20 0 25 5 25 25 0 20 -5 25 -25 25
-20 0 -25 -5 -25 -25z"/>
<path d="M2470 505 c0 -20 5 -25 25 -25 20 0 25 5 25 25 0 20 -5 25 -25 25
-20 0 -25 -5 -25 -25z"/>
<path d="M2120 305 c0 -20 5 -25 25 -25 20 0 25 5 25 25 0 20 -5 25 -25 25
-20 0 -25 -5 -25 -25z"/>
<path d="M1770 2805 c0 -20 -5 -25 -25 -25 -20 0 -25 -5 -25 -25 0 -20 5 -25
25 -25 20 0 25 5 25 25 0 20 5 25 25 25 20 0 25 5 25 25 0 20 -5 25 -25 25
-20 0 -25 -5 -25 -25z"/>
<path d="M2470 2655 l0 -175 175 0 175 0 0 175 0 175 -175 0 -175 0 0 -175z
m300 0 l0 -125 -125 0 -125 0 0 125 0 125 125 0 125 0 0 -125z"/>
<path d="M2570 2655 l0 -75 75 0 75 0 0 75 0 75 -75 0 -75 0 0 -75z"/>
<path d="M2420 2155 c0 -20 5 -25 25 -25 20 0 25 5 25 25 0 20 -5 25 -25 25
-20 0 -25 -5 -25 -25z"/>
<path d="M320 2105 c0 -20 5 -25 25 -25 20 0 25 5 25 25 0 20 -5 25 -25 25
-20 0 -25 -5 -25 -25z"/>
<path d="M170 2030 c0 -47 2 -50 25 -50 20 0 25 -5 25 -25 0 -24 2 -25 75 -25
l75 0 0 50 0 50 -75 0 c-73 0 -75 1 -75 25 0 20 -5 25 -25 25 -23 0 -25 -3
-25 -50z"/>
<path d="M2370 2005 c0 -23 3 -25 50 -25 47 0 50 2 50 25 0 23 -3 25 -50 25
-47 0 -50 -2 -50 -25z"/>
<path d="M170 1830 c0 -47 2 -50 25 -50 23 0 25 3 25 50 0 47 -2 50 -25 50
-23 0 -25 -3 -25 -50z"/>
<path d="M2770 1855 c0 -20 5 -25 25 -25 20 0 25 5 25 25 0 20 -5 25 -25 25
-20 0 -25 -5 -25 -25z"/>
<path d="M970 1705 c0 -60 3 -75 15 -75 12 0 15 15 15 75 0 60 -3 75 -15 75
-12 0 -15 -15 -15 -75z"/>
<path d="M1120 1511 c0 -63 4 -111 9 -111 6 0 39 18 74 41 l65 40 52 -32 51
-32 -26 -17 c-15 -10 -38 -37 -51 -60 l-24 -41 38 22 c20 13 63 39 94 59 l57
36 -132 81 c-73 45 -149 91 -169 103 l-38 22 0 -111z m88 6 c9 -8 8 -13 -5
-23 -27 -20 -33 -17 -33 17 0 30 5 31 38 6z"/>
<path d="M1343 1583 c-15 -10 -23 -26 -23 -44 l0 -29 68 41 c37 23 69 43 71
45 14 13 -98 0 -116 -13z"/>
<path d="M1652 1577 c-40 -43 -17 -127 36 -127 28 0 62 29 62 54 0 30 -18 46
-53 46 -16 0 -26 4 -22 10 3 6 17 10 29 10 13 0 29 7 36 15 11 13 7 15 -27 15
-28 0 -46 -7 -61 -23z m55 -63 c8 -21 -13 -42 -28 -27 -13 13 -5 43 11 43 6 0
13 -7 17 -16z"/>
<path d="M1524 1535 c-8 -13 -13 -33 -10 -43 8 -24 52 -45 78 -36 26 8 17 29
-13 29 -17 0 -25 6 -27 23 -2 13 2 22 10 23 7 1 19 2 27 3 8 0 16 7 18 14 3 8
-7 12 -31 12 -27 0 -40 -6 -52 -25z"/>
<path d="M1770 1510 c0 -43 3 -50 20 -50 16 0 20 7 20 35 0 24 5 35 15 35 10
0 15 -11 15 -35 0 -28 4 -35 20 -35 17 0 20 7 20 50 l0 50 -55 0 -55 0 0 -50z"/>
<path d="M2000 1355 c0 -43 4 -75 10 -75 6 0 10 11 10 25 0 20 5 25 25 25 23
0 25 3 25 50 l0 50 -35 0 -35 0 0 -75z"/>
<path d="M970 1180 c0 -38 4 -50 15 -50 11 0 15 12 15 50 0 38 -4 50 -15 50
-11 0 -15 -12 -15 -50z"/>
<path d="M2270 1155 c0 -23 3 -25 50 -25 47 0 50 2 50 25 0 23 -3 25 -50 25
-47 0 -50 -2 -50 -25z"/>
<path d="M1420 1105 c0 -20 5 -25 25 -25 20 0 25 -5 25 -25 0 -20 -5 -25 -25
-25 -20 0 -25 -5 -25 -25 0 -20 -5 -25 -25 -25 -20 0 -25 -5 -25 -25 0 -20 5
-25 25 -25 20 0 25 5 25 25 0 24 2 25 75 25 73 0 75 -1 75 -25 0 -20 5 -25 25
-25 23 0 25 3 25 50 l0 50 50 0 c47 0 50 -2 50 -25 0 -20 -5 -25 -25 -25 -20
0 -25 -5 -25 -25 0 -20 5 -25 25 -25 20 0 25 5 25 25 0 20 5 25 25 25 20 0 25
-5 25 -25 0 -20 5 -25 25 -25 23 0 25 3 25 50 0 47 -2 50 -25 50 -20 0 -25 5
-25 25 0 23 3 25 50 25 47 0 50 2 50 25 l0 25 -125 0 -125 0 0 -25 c0 -20 -5
-25 -25 -25 -20 0 -25 -5 -25 -25 0 -20 -5 -25 -25 -25 -20 0 -25 5 -25 25 0
20 -5 25 -25 25 -20 0 -25 5 -25 25 0 20 -5 25 -25 25 -20 0 -25 -5 -25 -25z"/>
<path d="M170 1055 c0 -20 5 -25 25 -25 20 0 25 5 25 25 0 20 -5 25 -25 25
-20 0 -25 -5 -25 -25z"/>
<path d="M2270 1055 c0 -20 5 -25 25 -25 20 0 25 5 25 25 0 20 -5 25 -25 25
-20 0 -25 -5 -25 -25z"/>
<path d="M1470 855 c0 -20 5 -25 25 -25 20 0 25 -5 25 -25 0 -20 5 -25 25 -25
20 0 25 5 25 25 0 20 -5 25 -25 25 -20 0 -25 5 -25 25 0 20 -5 25 -25 25 -20
0 -25 -5 -25 -25z"/>
<path d="M1620 805 c0 -20 5 -25 25 -25 20 0 25 5 25 25 0 20 -5 25 -25 25
-20 0 -25 -5 -25 -25z"/>
<path d="M470 605 c0 -20 5 -25 25 -25 20 0 25 5 25 25 0 20 -5 25 -25 25 -20
0 -25 -5 -25 -25z"/>
<path d="M2120 605 c0 -20 5 -25 25 -25 20 0 25 5 25 25 0 20 -5 25 -25 25
-20 0 -25 -5 -25 -25z"/>
<path d="M170 355 l0 -175 175 0 175 0 0 175 0 175 -175 0 -175 0 0 -175z
m300 0 l0 -125 -125 0 -125 0 0 125 0 125 125 0 125 0 0 -125z"/>
<path d="M270 355 l0 -75 75 0 75 0 0 75 0 75 -75 0 -75 0 0 -75z"/>
</g>
</svg>
