<?xml version="1.0"?>
<svg xmlns="http://www.w3.org/2000/svg" xmlns:xlink="http://www.w3.org/1999/xlink" version="1.1" width="500px" height="500px" viewBox="0 0 500 500"><defs><rect id="block" width="12.1951219512" height="12.1951219512" fill="#000000" fill-opacity="1"/></defs><rect x="0" y="0" width="500" height="500" fill="#ffffff" fill-opacity="1"/><use x="0.0000000000" y="0.0000000000" xlink:href="#block"/><use x="12.1951219512" y="0.0000000000" xlink:href="#block"/><use x="24.3902439024" y="0.0000000000" xlink:href="#block"/><use x="36.5853658537" y="0.0000000000" xlink:href="#block"/><use x="48.7804878049" y="0.0000000000" xlink:href="#block"/><use x="60.9756097561" y="0.0000000000" xlink:href="#block"/><use x="73.1707317073" y="0.0000000000" xlink:href="#block"/><use x="182.9268292683" y="0.0000000000" xlink:href="#block"/><use x="195.1219512195" y="0.0000000000" xlink:href="#block"/><use x="219.5121951220" y="0.0000000000" xlink:href="#block"/><use x="256.0975609756" y="0.0000000000" xlink:href="#block"/><use x="280.4878048780" y="0.0000000000" xlink:href="#block"/><use x="292.6829268293" y="0.0000000000" xlink:href="#block"/><use x="304.8780487805" y="0.0000000000" xlink:href="#block"/><use x="317.0731707317" y="0.0000000000" xlink:href="#block"/><use x="341.4634146341" y="0.0000000000" xlink:href="#block"/><use x="414.6341463415" y="0.0000000000" xlink:href="#block"/><use x="426.8292682927" y="0.0000000000" xlink:href="#block"/><use x="439.0243902439" y="0.0000000000" xlink:href="#block"/><use x="451.2195121951" y="0.0000000000" xlink:href="#block"/><use x="463.4146341463" y="0.0000000000" xlink:href="#block"/><use x="475.6097560976" y="0.0000000000" xlink:href="#block"/><use x="487.8048780488" y="0.0000000000" xlink:href="#block"/><use x="0.0000000000" y="12.1951219512" xlink:href="#block"/><use x="73.1707317073" y="12.1951219512" xlink:href="#block"/><use x="109.7560975610" y="12.1951219512" xlink:href="#block"/><use x="134.1463414634" y="12.1951219512" xlink:href="#block"/><use x="158.5365853659" y="12.1951219512" xlink:href="#block"/><use x="182.9268292683" y="12.1951219512" xlink:href="#block"/><use x="207.3170731707" y="12.1951219512" xlink:href="#block"/><use x="219.5121951220" y="12.1951219512" xlink:href="#block"/><use x="231.7073170732" y="12.1951219512" xlink:href="#block"/><use x="243.9024390244" y="12.1951219512" xlink:href="#block"/><use x="280.4878048780" y="12.1951219512" xlink:href="#block"/><use x="304.8780487805" y="12.1951219512" xlink:href="#block"/><use x="317.0731707317" y="12.1951219512" xlink:href="#block"/><use x="341.4634146341" y="12.1951219512" xlink:href="#block"/><use x="353.6585365854" y="12.1951219512" xlink:href="#block"/><use x="414.6341463415" y="12.1951219512" xlink:href="#block"/><use x="487.8048780488" y="12.1951219512" xlink:href="#block"/><use x="0.0000000000" y="24.3902439024" xlink:href="#block"/><use x="24.3902439024" y="24.3902439024" xlink:href="#block"/><use x="36.5853658537" y="24.3902439024" xlink:href="#block"/><use x="48.7804878049" y="24.3902439024" xlink:href="#block"/><use x="73.1707317073" y="24.3902439024" xlink:href="#block"/><use x="97.5609756098" y="24.3902439024" xlink:href="#block"/><use x="146.3414634146" y="24.3902439024" xlink:href="#block"/><use x="158.5365853659" y="24.3902439024" xlink:href="#block"/><use x="195.1219512195" y="24.3902439024" xlink:href="#block"/><use x="219.5121951220" y="24.3902439024" xlink:href="#block"/><use x="268.2926829268" y="24.3902439024" xlink:href="#block"/><use x="292.6829268293" y="24.3902439024" xlink:href="#block"/><use x="304.8780487805" y="24.3902439024" xlink:href="#block"/><use x="317.0731707317" y="24.3902439024" xlink:href="#block"/><use x="353.6585365854" y="24.3902439024" xlink:href="#block"/><use x="365.8536585366" y="24.3902439024" xlink:href="#block"/><use x="414.6341463415" y="24.3902439024" xlink:href="#block"/><use x="439.0243902439" y="24.3902439024" xlink:href="#block"/><use x="451.2195121951" y="24.3902439024" xlink:href="#block"/><use x="463.4146341463" y="24.3902439024" xlink:href="#block"/><use x="487.8048780488" y="24.3902439024" xlink:href="#block"/><use x="0.0000000000" y="36.5853658537" xlink:href="#block"/><use x="24.3902439024" y="36.5853658537" xlink:href="#block"/><use x="36.5853658537" y="36.5853658537" xlink:href="#block"/><use x="48.7804878049" y="36.5853658537" xlink:href="#block"/><use x="73.1707317073" y="36.5853658537" xlink:href="#block"/><use x="97.5609756098" y="36.5853658537" xlink:href="#block"/><use x="121.9512195122" y="36.5853658537" xlink:href="#block"/><use x="134.1463414634" y="36.5853658537" xlink:href="#block"/><use x="146.3414634146" y="36.5853658537" xlink:href="#block"/><use x="158.5365853659" y="36.5853658537" xlink:href="#block"/><use x="207.3170731707" y="36.5853658537" xlink:href="#block"/><use x="280.4878048780" y="36.5853658537" xlink:href="#block"/><use x="317.0731707317" y="36.5853658537" xlink:href="#block"/><use x="341.4634146341" y="36.5853658537" xlink:href="#block"/><use x="414.6341463415" y="36.5853658537" xlink:href="#block"/><use x="439.0243902439" y="36.5853658537" xlink:href="#block"/><use x="451.2195121951" y="36.5853658537" xlink:href="#block"/><use x="463.4146341463" y="36.5853658537" xlink:href="#block"/><use x="487.8048780488" y="36.5853658537" xlink:href="#block"/><use x="0.0000000000" y="48.7804878049" xlink:href="#block"/><use x="24.3902439024" y="48.7804878049" xlink:href="#block"/><use x="36.5853658537" y="48.7804878049" xlink:href="#block"/><use x="48.7804878049" y="48.7804878049" xlink:href="#block"/><use x="73.1707317073" y="48.7804878049" xlink:href="#block"/><use x="134.1463414634" y="48.7804878049" xlink:href="#block"/><use x="170.7317073171" y="48.7804878049" xlink:href="#block"/><use x="182.9268292683" y="48.7804878049" xlink:href="#block"/><use x="207.3170731707" y="48.7804878049" xlink:href="#block"/><use x="219.5121951220" y="48.7804878049" xlink:href="#block"/><use x="256.0975609756" y="48.7804878049" xlink:href="#block"/><use x="268.2926829268" y="48.7804878049" xlink:href="#block"/><use x="280.4878048780" y="48.7804878049" xlink:href="#block"/><use x="292.6829268293" y="48.7804878049" xlink:href="#block"/><use x="353.6585365854" y="48.7804878049" xlink:href="#block"/><use x="365.8536585366" y="48.7804878049" xlink:href="#block"/><use x="378.0487804878" y="48.7804878049" xlink:href="#block"/><use x="390.2439024390" y="48.7804878049" xlink:href="#block"/><use x="414.6341463415" y="48.7804878049" xlink:href="#block"/><use x="439.0243902439" y="48.7804878049" xlink:href="#block"/><use x="451.2195121951" y="48.7804878049" xlink:href="#block"/><use x="463.4146341463" y="48.7804878049" xlink:href="#block"/><use x="487.8048780488" y="48.7804878049" xlink:href="#block"/><use x="0.0000000000" y="60.9756097561" xlink:href="#block"/><use x="73.1707317073" y="60.9756097561" xlink:href="#block"/><use x="146.3414634146" y="60.9756097561" xlink:href="#block"/><use x="158.5365853659" y="60.9756097561" xlink:href="#block"/><use x="195.1219512195" y="60.9756097561" xlink:href="#block"/><use x="207.3170731707" y="60.9756097561" xlink:href="#block"/><use x="231.7073170732" y="60.9756097561" xlink:href="#block"/><use x="243.9024390244" y="60.9756097561" xlink:href="#block"/><use x="256.0975609756" y="60.9756097561" xlink:href="#block"/><use x="268.2926829268" y="60.9756097561" xlink:href="#block"/><use x="280.4878048780" y="60.9756097561" xlink:href="#block"/><use x="304.8780487805" y="60.9756097561" xlink:href="#block"/><use x="341.4634146341" y="60.9756097561" xlink:href="#block"/><use x="365.8536585366" y="60.9756097561" xlink:href="#block"/><use x="390.2439024390" y="60.9756097561" xlink:href="#block"/><use x="414.6341463415" y="60.9756097561" xlink:href="#block"/><use x="487.8048780488" y="60.9756097561" xlink:href="#block"/><use x="0.0000000000" y="73.1707317073" xlink:href="#block"/><use x="12.1951219512" y="73.1707317073" xlink:href="#block"/><use x="24.3902439024" y="73.1707317073" xlink:href="#block"/><use x="36.5853658537" y="73.1707317073" xlink:href="#block"/><use x="48.7804878049" y="73.1707317073" xlink:href="#block"/><use x="60.9756097561" y="73.1707317073" xlink:href="#block"/><use x="73.1707317073" y="73.1707317073" xlink:href="#block"/><use x="97.5609756098" y="73.1707317073" xlink:href="#block"/><use x="121.9512195122" y="73.1707317073" xlink:href="#block"/><use x="146.3414634146" y="73.1707317073" xlink:href="#block"/><use x="170.7317073171" y="73.1707317073" xlink:href="#block"/><use x="195.1219512195" y="73.1707317073" xlink:href="#block"/><use x="219.5121951220" y="73.1707317073" xlink:href="#block"/><use x="243.9024390244" y="73.1707317073" xlink:href="#block"/><use x="268.2926829268" y="73.1707317073" xlink:href="#block"/><use x="292.6829268293" y="73.1707317073" xlink:href="#block"/><use x="317.0731707317" y="73.1707317073" xlink:href="#block"/><use x="341.4634146341" y="73.1707317073" xlink:href="#block"/><use x="365.8536585366" y="73.1707317073" xlink:href="#block"/><use x="390.2439024390" y="73.1707317073" xlink:href="#block"/><use x="414.6341463415" y="73.1707317073" xlink:href="#block"/><use x="426.8292682927" y="73.1707317073" xlink:href="#block"/><use x="439.0243902439" y="73.1707317073" xlink:href="#block"/><use x="451.2195121951" y="73.1707317073" xlink:href="#block"/><use x="463.4146341463" y="73.1707317073" xlink:href="#block"/><use x="475.6097560976" y="73.1707317073" xlink:href="#block"/><use x="487.8048780488" y="73.1707317073" xlink:href="#block"/><use x="146.3414634146" y="85.3658536585" xlink:href="#block"/><use x="182.9268292683" y="85.3658536585" xlink:href="#block"/><use x="231.7073170732" y="85.3658536585" xlink:href="#block"/><use x="243.9024390244" y="85.3658536585" xlink:href="#block"/><use x="317.0731707317" y="85.3658536585" xlink:href="#block"/><use x="329.2682926829" y="85.3658536585" xlink:href="#block"/><use x="341.4634146341" y="85.3658536585" xlink:href="#block"/><use x="353.6585365854" y="85.3658536585" xlink:href="#block"/><use x="365.8536585366" y="85.3658536585" xlink:href="#block"/><use x="36.5853658537" y="97.5609756098" xlink:href="#block"/><use x="48.7804878049" y="97.5609756098" xlink:href="#block"/><use x="73.1707317073" y="97.5609756098" xlink:href="#block"/><use x="85.3658536585" y="97.5609756098" xlink:href="#block"/><use x="109.7560975610" y="97.5609756098" xlink:href="#block"/><use x="146.3414634146" y="97.5609756098" xlink:href="#block"/><use x="219.5121951220" y="97.5609756098" xlink:href="#block"/><use x="243.9024390244" y="97.5609756098" xlink:href="#block"/><use x="256.0975609756" y="97.5609756098" xlink:href="#block"/><use x="268.2926829268" y="97.5609756098" xlink:href="#block"/><use x="329.2682926829" y="97.5609756098" xlink:href="#block"/><use x="353.6585365854" y="97.5609756098" xlink:href="#block"/><use x="378.0487804878" y="97.5609756098" xlink:href="#block"/><use x="390.2439024390" y="97.5609756098" xlink:href="#block"/><use x="451.2195121951" y="97.5609756098" xlink:href="#block"/><use x="463.4146341463" y="97.5609756098" xlink:href="#block"/><use x="0.0000000000" y="109.7560975610" xlink:href="#block"/><use x="24.3902439024" y="109.7560975610" xlink:href="#block"/><use x="109.7560975610" y="109.7560975610" xlink:href="#block"/><use x="121.9512195122" y="109.7560975610" xlink:href="#block"/><use x="146.3414634146" y="109.7560975610" xlink:href="#block"/><use x="158.5365853659" y="109.7560975610" xlink:href="#block"/><use x="170.7317073171" y="109.7560975610" xlink:href="#block"/><use x="195.1219512195" y="109.7560975610" xlink:href="#block"/><use x="219.5121951220" y="109.7560975610" xlink:href="#block"/><use x="243.9024390244" y="109.7560975610" xlink:href="#block"/><use x="256.0975609756" y="109.7560975610" xlink:href="#block"/><use x="268.2926829268" y="109.7560975610" xlink:href="#block"/><use x="280.4878048780" y="109.7560975610" xlink:href="#block"/><use x="329.2682926829" y="109.7560975610" xlink:href="#block"/><use x="341.4634146341" y="109.7560975610" xlink:href="#block"/><use x="378.0487804878" y="109.7560975610" xlink:href="#block"/><use x="426.8292682927" y="109.7560975610" xlink:href="#block"/><use x="463.4146341463" y="109.7560975610" xlink:href="#block"/><use x="475.6097560976" y="109.7560975610" xlink:href="#block"/><use x="487.8048780488" y="109.7560975610" xlink:href="#block"/><use x="36.5853658537" y="121.9512195122" xlink:href="#block"/><use x="48.7804878049" y="121.9512195122" xlink:href="#block"/><use x="60.9756097561" y="121.9512195122" xlink:href="#block"/><use x="73.1707317073" y="121.9512195122" xlink:href="#block"/><use x="85.3658536585" y="121.9512195122" xlink:href="#block"/><use x="134.1463414634" y="121.9512195122" xlink:href="#block"/><use x="158.5365853659" y="121.9512195122" xlink:href="#block"/><use x="195.1219512195" y="121.9512195122" xlink:href="#block"/><use x="219.5121951220" y="121.9512195122" xlink:href="#block"/><use x="231.7073170732" y="121.9512195122" xlink:href="#block"/><use x="243.9024390244" y="121.9512195122" xlink:href="#block"/><use x="256.0975609756" y="121.9512195122" xlink:href="#block"/><use x="280.4878048780" y="121.9512195122" xlink:href="#block"/><use x="304.8780487805" y="121.9512195122" xlink:href="#block"/><use x="317.0731707317" y="121.9512195122" xlink:href="#block"/><use x="329.2682926829" y="121.9512195122" xlink:href="#block"/><use x="341.4634146341" y="121.9512195122" xlink:href="#block"/><use x="378.0487804878" y="121.9512195122" xlink:href="#block"/><use x="390.2439024390" y="121.9512195122" xlink:href="#block"/><use x="414.6341463415" y="121.9512195122" xlink:href="#block"/><use x="426.8292682927" y="121.9512195122" xlink:href="#block"/><use x="0.0000000000" y="134.1463414634" xlink:href="#block"/><use x="97.5609756098" y="134.1463414634" xlink:href="#block"/><use x="109.7560975610" y="134.1463414634" xlink:href="#block"/><use x="146.3414634146" y="134.1463414634" xlink:href="#block"/><use x="158.5365853659" y="134.1463414634" xlink:href="#block"/><use x="170.7317073171" y="134.1463414634" xlink:href="#block"/><use x="195.1219512195" y="134.1463414634" xlink:href="#block"/><use x="219.5121951220" y="134.1463414634" xlink:href="#block"/><use x="231.7073170732" y="134.1463414634" xlink:href="#block"/><use x="243.9024390244" y="134.1463414634" xlink:href="#block"/><use x="256.0975609756" y="134.1463414634" xlink:href="#block"/><use x="268.2926829268" y="134.1463414634" xlink:href="#block"/><use x="280.4878048780" y="134.1463414634" xlink:href="#block"/><use x="317.0731707317" y="134.1463414634" xlink:href="#block"/><use x="329.2682926829" y="134.1463414634" xlink:href="#block"/><use x="365.8536585366" y="134.1463414634" xlink:href="#block"/><use x="378.0487804878" y="134.1463414634" xlink:href="#block"/><use x="439.0243902439" y="134.1463414634" xlink:href="#block"/><use x="451.2195121951" y="134.1463414634" xlink:href="#block"/><use x="463.4146341463" y="134.1463414634" xlink:href="#block"/><use x="0.0000000000" y="146.3414634146" xlink:href="#block"/><use x="12.1951219512" y="146.3414634146" xlink:href="#block"/><use x="36.5853658537" y="146.3414634146" xlink:href="#block"/><use x="73.1707317073" y="146.3414634146" xlink:href="#block"/><use x="97.5609756098" y="146.3414634146" xlink:href="#block"/><use x="109.7560975610" y="146.3414634146" xlink:href="#block"/><use x="182.9268292683" y="146.3414634146" xlink:href="#block"/><use x="219.5121951220" y="146.3414634146" xlink:href="#block"/><use x="231.7073170732" y="146.3414634146" xlink:href="#block"/><use x="280.4878048780" y="146.3414634146" xlink:href="#block"/><use x="329.2682926829" y="146.3414634146" xlink:href="#block"/><use x="341.4634146341" y="146.3414634146" xlink:href="#block"/><use x="378.0487804878" y="146.3414634146" xlink:href="#block"/><use x="451.2195121951" y="146.3414634146" xlink:href="#block"/><use x="463.4146341463" y="146.3414634146" xlink:href="#block"/><use x="487.8048780488" y="146.3414634146" xlink:href="#block"/><use x="12.1951219512" y="158.5365853659" xlink:href="#block"/><use x="24.3902439024" y="158.5365853659" xlink:href="#block"/><use x="48.7804878049" y="158.5365853659" xlink:href="#block"/><use x="60.9756097561" y="158.5365853659" xlink:href="#block"/><use x="85.3658536585" y="158.5365853659" xlink:href="#block"/><use x="170.7317073171" y="158.5365853659" xlink:href="#block"/><use x="182.9268292683" y="158.5365853659" xlink:href="#block"/><use x="207.3170731707" y="158.5365853659" xlink:href="#block"/><use x="219.5121951220" y="158.5365853659" xlink:href="#block"/><use x="280.4878048780" y="158.5365853659" xlink:href="#block"/><use x="304.8780487805" y="158.5365853659" xlink:href="#block"/><use x="341.4634146341" y="158.5365853659" xlink:href="#block"/><use x="378.0487804878" y="158.5365853659" xlink:href="#block"/><use x="390.2439024390" y="158.5365853659" xlink:href="#block"/><use x="426.8292682927" y="158.5365853659" xlink:href="#block"/><use x="451.2195121951" y="158.5365853659" xlink:href="#block"/><use x="463.4146341463" y="158.5365853659" xlink:href="#block"/><use x="0.0000000000" y="170.7317073171" xlink:href="#block"/><use x="12.1951219512" y="170.7317073171" xlink:href="#block"/><use x="24.3902439024" y="170.7317073171" xlink:href="#block"/><use x="36.5853658537" y="170.7317073171" xlink:href="#block"/><use x="48.7804878049" y="170.7317073171" xlink:href="#block"/><use x="73.1707317073" y="170.7317073171" xlink:href="#block"/><use x="85.3658536585" y="170.7317073171" xlink:href="#block"/><use x="97.5609756098" y="170.7317073171" xlink:href="#block"/><use x="109.7560975610" y="170.7317073171" xlink:href="#block"/><use x="134.1463414634" y="170.7317073171" xlink:href="#block"/><use x="182.9268292683" y="170.7317073171" xlink:href="#block"/><use x="195.1219512195" y="170.7317073171" xlink:href="#block"/><use x="207.3170731707" y="170.7317073171" xlink:href="#block"/><use x="219.5121951220" y="170.7317073171" xlink:href="#block"/><use x="231.7073170732" y="170.7317073171" xlink:href="#block"/><use x="243.9024390244" y="170.7317073171" xlink:href="#block"/><use x="256.0975609756" y="170.7317073171" xlink:href="#block"/><use x="268.2926829268" y="170.7317073171" xlink:href="#block"/><use x="317.0731707317" y="170.7317073171" xlink:href="#block"/><use x="341.4634146341" y="170.7317073171" xlink:href="#block"/><use x="353.6585365854" y="170.7317073171" xlink:href="#block"/><use x="378.0487804878" y="170.7317073171" xlink:href="#block"/><use x="390.2439024390" y="170.7317073171" xlink:href="#block"/><use x="414.6341463415" y="170.7317073171" xlink:href="#block"/><use x="451.2195121951" y="170.7317073171" xlink:href="#block"/><use x="463.4146341463" y="170.7317073171" xlink:href="#block"/><use x="487.8048780488" y="170.7317073171" xlink:href="#block"/><use x="12.1951219512" y="182.9268292683" xlink:href="#block"/><use x="24.3902439024" y="182.9268292683" xlink:href="#block"/><use x="60.9756097561" y="182.9268292683" xlink:href="#block"/><use x="85.3658536585" y="182.9268292683" xlink:href="#block"/><use x="146.3414634146" y="182.9268292683" xlink:href="#block"/><use x="158.5365853659" y="182.9268292683" xlink:href="#block"/><use x="170.7317073171" y="182.9268292683" xlink:href="#block"/><use x="195.1219512195" y="182.9268292683" xlink:href="#block"/><use x="207.3170731707" y="182.9268292683" xlink:href="#block"/><use x="231.7073170732" y="182.9268292683" xlink:href="#block"/><use x="256.0975609756" y="182.9268292683" xlink:href="#block"/><use x="304.8780487805" y="182.9268292683" xlink:href="#block"/><use x="317.0731707317" y="182.9268292683" xlink:href="#block"/><use x="329.2682926829" y="182.9268292683" xlink:href="#block"/><use x="390.2439024390" y="182.9268292683" xlink:href="#block"/><use x="402.4390243902" y="182.9268292683" xlink:href="#block"/><use x="439.0243902439" y="182.9268292683" xlink:href="#block"/><use x="451.2195121951" y="182.9268292683" xlink:href="#block"/><use x="475.6097560976" y="182.9268292683" xlink:href="#block"/><use x="36.5853658537" y="195.1219512195" xlink:href="#block"/><use x="48.7804878049" y="195.1219512195" xlink:href="#block"/><use x="73.1707317073" y="195.1219512195" xlink:href="#block"/><use x="97.5609756098" y="195.1219512195" xlink:href="#block"/><use x="134.1463414634" y="195.1219512195" xlink:href="#block"/><use x="170.7317073171" y="195.1219512195" xlink:href="#block"/><use x="182.9268292683" y="195.1219512195" xlink:href="#block"/><use x="195.1219512195" y="195.1219512195" xlink:href="#block"/><use x="231.7073170732" y="195.1219512195" xlink:href="#block"/><use x="292.6829268293" y="195.1219512195" xlink:href="#block"/><use x="317.0731707317" y="195.1219512195" xlink:href="#block"/><use x="353.6585365854" y="195.1219512195" xlink:href="#block"/><use x="365.8536585366" y="195.1219512195" xlink:href="#block"/><use x="402.4390243902" y="195.1219512195" xlink:href="#block"/><use x="426.8292682927" y="195.1219512195" xlink:href="#block"/><use x="439.0243902439" y="195.1219512195" xlink:href="#block"/><use x="12.1951219512" y="207.3170731707" xlink:href="#block"/><use x="24.3902439024" y="207.3170731707" xlink:href="#block"/><use x="36.5853658537" y="207.3170731707" xlink:href="#block"/><use x="48.7804878049" y="207.3170731707" xlink:href="#block"/><use x="85.3658536585" y="207.3170731707" xlink:href="#block"/><use x="121.9512195122" y="207.3170731707" xlink:href="#block"/><use x="146.3414634146" y="207.3170731707" xlink:href="#block"/><use x="158.5365853659" y="207.3170731707" xlink:href="#block"/><use x="182.9268292683" y="207.3170731707" xlink:href="#block"/><use x="207.3170731707" y="207.3170731707" xlink:href="#block"/><use x="231.7073170732" y="207.3170731707" xlink:href="#block"/><use x="243.9024390244" y="207.3170731707" xlink:href="#block"/><use x="268.2926829268" y="207.3170731707" xlink:href="#block"/><use x="292.6829268293" y="207.3170731707" xlink:href="#block"/><use x="304.8780487805" y="207.3170731707" xlink:href="#block"/><use x="317.0731707317" y="207.3170731707" xlink:href="#block"/><use x="353.6585365854" y="207.3170731707" xlink:href="#block"/><use x="390.2439024390" y="207.3170731707" xlink:href="#block"/><use x="414.6341463415" y="207.3170731707" xlink:href="#block"/><use x="439.0243902439" y="207.3170731707" xlink:href="#block"/><use x="475.6097560976" y="207.3170731707" xlink:href="#block"/><use x="487.8048780488" y="207.3170731707" xlink:href="#block"/><use x="36.5853658537" y="219.5121951220" xlink:href="#block"/><use x="60.9756097561" y="219.5121951220" xlink:href="#block"/><use x="73.1707317073" y="219.5121951220" xlink:href="#block"/><use x="109.7560975610" y="219.5121951220" xlink:href="#block"/><use x="158.5365853659" y="219.5121951220" xlink:href="#block"/><use x="170.7317073171" y="219.5121951220" xlink:href="#block"/><use x="182.9268292683" y="219.5121951220" xlink:href="#block"/><use x="195.1219512195" y="219.5121951220" xlink:href="#block"/><use x="219.5121951220" y="219.5121951220" xlink:href="#block"/><use x="231.7073170732" y="219.5121951220" xlink:href="#block"/><use x="243.9024390244" y="219.5121951220" xlink:href="#block"/><use x="268.2926829268" y="219.5121951220" xlink:href="#block"/><use x="280.4878048780" y="219.5121951220" xlink:href="#block"/><use x="329.2682926829" y="219.5121951220" xlink:href="#block"/><use x="353.6585365854" y="219.5121951220" xlink:href="#block"/><use x="365.8536585366" y="219.5121951220" xlink:href="#block"/><use x="378.0487804878" y="219.5121951220" xlink:href="#block"/><use x="390.2439024390" y="219.5121951220" xlink:href="#block"/><use x="414.6341463415" y="219.5121951220" xlink:href="#block"/><use x="451.2195121951" y="219.5121951220" xlink:href="#block"/><use x="475.6097560976" y="219.5121951220" xlink:href="#block"/><use x="0.0000000000" y="231.7073170732" xlink:href="#block"/><use x="12.1951219512" y="231.7073170732" xlink:href="#block"/><use x="36.5853658537" y="231.7073170732" xlink:href="#block"/><use x="85.3658536585" y="231.7073170732" xlink:href="#block"/><use x="97.5609756098" y="231.7073170732" xlink:href="#block"/><use x="146.3414634146" y="231.7073170732" xlink:href="#block"/><use x="170.7317073171" y="231.7073170732" xlink:href="#block"/><use x="195.1219512195" y="231.7073170732" xlink:href="#block"/><use x="231.7073170732" y="231.7073170732" xlink:href="#block"/><use x="243.9024390244" y="231.7073170732" xlink:href="#block"/><use x="256.0975609756" y="231.7073170732" xlink:href="#block"/><use x="304.8780487805" y="231.7073170732" xlink:href="#block"/><use x="329.2682926829" y="231.7073170732" xlink:href="#block"/><use x="341.4634146341" y="231.7073170732" xlink:href="#block"/><use x="402.4390243902" y="231.7073170732" xlink:href="#block"/><use x="414.6341463415" y="231.7073170732" xlink:href="#block"/><use x="426.8292682927" y="231.7073170732" xlink:href="#block"/><use x="439.0243902439" y="231.7073170732" xlink:href="#block"/><use x="475.6097560976" y="231.7073170732" xlink:href="#block"/><use x="487.8048780488" y="231.7073170732" xlink:href="#block"/><use x="24.3902439024" y="243.9024390244" xlink:href="#block"/><use x="36.5853658537" y="243.9024390244" xlink:href="#block"/><use x="60.9756097561" y="243.9024390244" xlink:href="#block"/><use x="73.1707317073" y="243.9024390244" xlink:href="#block"/><use x="158.5365853659" y="243.9024390244" xlink:href="#block"/><use x="195.1219512195" y="243.9024390244" xlink:href="#block"/><use x="207.3170731707" y="243.9024390244" xlink:href="#block"/><use x="219.5121951220" y="243.9024390244" xlink:href="#block"/><use x="243.9024390244" y="243.9024390244" xlink:href="#block"/><use x="256.0975609756" y="243.9024390244" xlink:href="#block"/><use x="280.4878048780" y="243.9024390244" xlink:href="#block"/><use x="329.2682926829" y="243.9024390244" xlink:href="#block"/><use x="341.4634146341" y="243.9024390244" xlink:href="#block"/><use x="365.8536585366" y="243.9024390244" xlink:href="#block"/><use x="378.0487804878" y="243.9024390244" xlink:href="#block"/><use x="402.4390243902" y="243.9024390244" xlink:href="#block"/><use x="414.6341463415" y="243.9024390244" xlink:href="#block"/><use x="426.8292682927" y="243.9024390244" xlink:href="#block"/><use x="439.0243902439" y="243.9024390244" xlink:href="#block"/><use x="463.4146341463" y="243.9024390244" xlink:href="#block"/><use x="487.8048780488" y="243.9024390244" xlink:href="#block"/><use x="60.9756097561" y="256.0975609756" xlink:href="#block"/><use x="85.3658536585" y="256.0975609756" xlink:href="#block"/><use x="109.7560975610" y="256.0975609756" xlink:href="#block"/><use x="121.9512195122" y="256.0975609756" xlink:href="#block"/><use x="134.1463414634" y="256.0975609756" xlink:href="#block"/><use x="146.3414634146" y="256.0975609756" xlink:href="#block"/><use x="170.7317073171" y="256.0975609756" xlink:href="#block"/><use x="182.9268292683" y="256.0975609756" xlink:href="#block"/><use x="195.1219512195" y="256.0975609756" xlink:href="#block"/><use x="207.3170731707" y="256.0975609756" xlink:href="#block"/><use x="231.7073170732" y="256.0975609756" xlink:href="#block"/><use x="243.9024390244" y="256.0975609756" xlink:href="#block"/><use x="256.0975609756" y="256.0975609756" xlink:href="#block"/><use x="280.4878048780" y="256.0975609756" xlink:href="#block"/><use x="292.6829268293" y="256.0975609756" xlink:href="#block"/><use x="304.8780487805" y="256.0975609756" xlink:href="#block"/><use x="378.0487804878" y="256.0975609756" xlink:href="#block"/><use x="390.2439024390" y="256.0975609756" xlink:href="#block"/><use x="414.6341463415" y="256.0975609756" xlink:href="#block"/><use x="439.0243902439" y="256.0975609756" xlink:href="#block"/><use x="463.4146341463" y="256.0975609756" xlink:href="#block"/><use x="487.8048780488" y="256.0975609756" xlink:href="#block"/><use x="24.3902439024" y="268.2926829268" xlink:href="#block"/><use x="48.7804878049" y="268.2926829268" xlink:href="#block"/><use x="60.9756097561" y="268.2926829268" xlink:href="#block"/><use x="73.1707317073" y="268.2926829268" xlink:href="#block"/><use x="97.5609756098" y="268.2926829268" xlink:href="#block"/><use x="121.9512195122" y="268.2926829268" xlink:href="#block"/><use x="134.1463414634" y="268.2926829268" xlink:href="#block"/><use x="146.3414634146" y="268.2926829268" xlink:href="#block"/><use x="158.5365853659" y="268.2926829268" xlink:href="#block"/><use x="182.9268292683" y="268.2926829268" xlink:href="#block"/><use x="195.1219512195" y="268.2926829268" xlink:href="#block"/><use x="219.5121951220" y="268.2926829268" xlink:href="#block"/><use x="231.7073170732" y="268.2926829268" xlink:href="#block"/><use x="268.2926829268" y="268.2926829268" xlink:href="#block"/><use x="304.8780487805" y="268.2926829268" xlink:href="#block"/><use x="439.0243902439" y="268.2926829268" xlink:href="#block"/><use x="463.4146341463" y="268.2926829268" xlink:href="#block"/><use x="0.0000000000" y="280.4878048780" xlink:href="#block"/><use x="36.5853658537" y="280.4878048780" xlink:href="#block"/><use x="60.9756097561" y="280.4878048780" xlink:href="#block"/><use x="85.3658536585" y="280.4878048780" xlink:href="#block"/><use x="109.7560975610" y="280.4878048780" xlink:href="#block"/><use x="121.9512195122" y="280.4878048780" xlink:href="#block"/><use x="146.3414634146" y="280.4878048780" xlink:href="#block"/><use x="182.9268292683" y="280.4878048780" xlink:href="#block"/><use x="195.1219512195" y="280.4878048780" xlink:href="#block"/><use x="207.3170731707" y="280.4878048780" xlink:href="#block"/><use x="219.5121951220" y="280.4878048780" xlink:href="#block"/><use x="243.9024390244" y="280.4878048780" xlink:href="#block"/><use x="256.0975609756" y="280.4878048780" xlink:href="#block"/><use x="304.8780487805" y="280.4878048780" xlink:href="#block"/><use x="317.0731707317" y="280.4878048780" xlink:href="#block"/><use x="329.2682926829" y="280.4878048780" xlink:href="#block"/><use x="353.6585365854" y="280.4878048780" xlink:href="#block"/><use x="365.8536585366" y="280.4878048780" xlink:href="#block"/><use x="378.0487804878" y="280.4878048780" xlink:href="#block"/><use x="390.2439024390" y="280.4878048780" xlink:href="#block"/><use x="426.8292682927" y="280.4878048780" xlink:href="#block"/><use x="439.0243902439" y="280.4878048780" xlink:href="#block"/><use x="0.0000000000" y="292.6829268293" xlink:href="#block"/><use x="36.5853658537" y="292.6829268293" xlink:href="#block"/><use x="48.7804878049" y="292.6829268293" xlink:href="#block"/><use x="73.1707317073" y="292.6829268293" xlink:href="#block"/><use x="109.7560975610" y="292.6829268293" xlink:href="#block"/><use x="121.9512195122" y="292.6829268293" xlink:href="#block"/><use x="158.5365853659" y="292.6829268293" xlink:href="#block"/><use x="170.7317073171" y="292.6829268293" xlink:href="#block"/><use x="182.9268292683" y="292.6829268293" xlink:href="#block"/><use x="256.0975609756" y="292.6829268293" xlink:href="#block"/><use x="268.2926829268" y="292.6829268293" xlink:href="#block"/><use x="280.4878048780" y="292.6829268293" xlink:href="#block"/><use x="292.6829268293" y="292.6829268293" xlink:href="#block"/><use x="304.8780487805" y="292.6829268293" xlink:href="#block"/><use x="329.2682926829" y="292.6829268293" xlink:href="#block"/><use x="365.8536585366" y="292.6829268293" xlink:href="#block"/><use x="378.0487804878" y="292.6829268293" xlink:href="#block"/><use x="390.2439024390" y="292.6829268293" xlink:href="#block"/><use x="402.4390243902" y="292.6829268293" xlink:href="#block"/><use x="414.6341463415" y="292.6829268293" xlink:href="#block"/><use x="451.2195121951" y="292.6829268293" xlink:href="#block"/><use x="463.4146341463" y="292.6829268293" xlink:href="#block"/><use x="475.6097560976" y="292.6829268293" xlink:href="#block"/><use x="12.1951219512" y="304.8780487805" xlink:href="#block"/><use x="24.3902439024" y="304.8780487805" xlink:href="#block"/><use x="48.7804878049" y="304.8780487805" xlink:href="#block"/><use x="85.3658536585" y="304.8780487805" xlink:href="#block"/><use x="97.5609756098" y="304.8780487805" xlink:href="#block"/><use x="109.7560975610" y="304.8780487805" xlink:href="#block"/><use x="195.1219512195" y="304.8780487805" xlink:href="#block"/><use x="219.5121951220" y="304.8780487805" xlink:href="#block"/><use x="243.9024390244" y="304.8780487805" xlink:href="#block"/><use x="256.0975609756" y="304.8780487805" xlink:href="#block"/><use x="268.2926829268" y="304.8780487805" xlink:href="#block"/><use x="304.8780487805" y="304.8780487805" xlink:href="#block"/><use x="329.2682926829" y="304.8780487805" xlink:href="#block"/><use x="341.4634146341" y="304.8780487805" xlink:href="#block"/><use x="365.8536585366" y="304.8780487805" xlink:href="#block"/><use x="390.2439024390" y="304.8780487805" xlink:href="#block"/><use x="402.4390243902" y="304.8780487805" xlink:href="#block"/><use x="426.8292682927" y="304.8780487805" xlink:href="#block"/><use x="463.4146341463" y="304.8780487805" xlink:href="#block"/><use x="475.6097560976" y="304.8780487805" xlink:href="#block"/><use x="36.5853658537" y="317.0731707317" xlink:href="#block"/><use x="48.7804878049" y="317.0731707317" xlink:href="#block"/><use x="73.1707317073" y="317.0731707317" xlink:href="#block"/><use x="97.5609756098" y="317.0731707317" xlink:href="#block"/><use x="109.7560975610" y="317.0731707317" xlink:href="#block"/><use x="134.1463414634" y="317.0731707317" xlink:href="#block"/><use x="170.7317073171" y="317.0731707317" xlink:href="#block"/><use x="182.9268292683" y="317.0731707317" xlink:href="#block"/><use x="219.5121951220" y="317.0731707317" xlink:href="#block"/><use x="243.9024390244" y="317.0731707317" xlink:href="#block"/><use x="256.0975609756" y="317.0731707317" xlink:href="#block"/><use x="280.4878048780" y="317.0731707317" xlink:href="#block"/><use x="304.8780487805" y="317.0731707317" xlink:href="#block"/><use x="317.0731707317" y="317.0731707317" xlink:href="#block"/><use x="341.4634146341" y="317.0731707317" xlink:href="#block"/><use x="353.6585365854" y="317.0731707317" xlink:href="#block"/><use x="390.2439024390" y="317.0731707317" xlink:href="#block"/><use x="402.4390243902" y="317.0731707317" xlink:href="#block"/><use x="414.6341463415" y="317.0731707317" xlink:href="#block"/><use x="451.2195121951" y="317.0731707317" xlink:href="#block"/><use x="463.4146341463" y="317.0731707317" xlink:href="#block"/><use x="487.8048780488" y="317.0731707317" xlink:href="#block"/><use x="0.0000000000" y="329.2682926829" xlink:href="#block"/><use x="12.1951219512" y="329.2682926829" xlink:href="#block"/><use x="24.3902439024" y="329.2682926829" xlink:href="#block"/><use x="48.7804878049" y="329.2682926829" xlink:href="#block"/><use x="97.5609756098" y="329.2682926829" xlink:href="#block"/><use x="109.7560975610" y="329.2682926829" xlink:href="#block"/><use x="146.3414634146" y="329.2682926829" xlink:href="#block"/><use x="170.7317073171" y="329.2682926829" xlink:href="#block"/><use x="182.9268292683" y="329.2682926829" xlink:href="#block"/><use x="195.1219512195" y="329.2682926829" xlink:href="#block"/><use x="207.3170731707" y="329.2682926829" xlink:href="#block"/><use x="231.7073170732" y="329.2682926829" xlink:href="#block"/><use x="243.9024390244" y="329.2682926829" xlink:href="#block"/><use x="256.0975609756" y="329.2682926829" xlink:href="#block"/><use x="292.6829268293" y="329.2682926829" xlink:href="#block"/><use x="329.2682926829" y="329.2682926829" xlink:href="#block"/><use x="353.6585365854" y="329.2682926829" xlink:href="#block"/><use x="365.8536585366" y="329.2682926829" xlink:href="#block"/><use x="378.0487804878" y="329.2682926829" xlink:href="#block"/><use x="390.2439024390" y="329.2682926829" xlink:href="#block"/><use x="402.4390243902" y="329.2682926829" xlink:href="#block"/><use x="414.6341463415" y="329.2682926829" xlink:href="#block"/><use x="426.8292682927" y="329.2682926829" xlink:href="#block"/><use x="439.0243902439" y="329.2682926829" xlink:href="#block"/><use x="475.6097560976" y="329.2682926829" xlink:href="#block"/><use x="24.3902439024" y="341.4634146341" xlink:href="#block"/><use x="36.5853658537" y="341.4634146341" xlink:href="#block"/><use x="48.7804878049" y="341.4634146341" xlink:href="#block"/><use x="73.1707317073" y="341.4634146341" xlink:href="#block"/><use x="97.5609756098" y="341.4634146341" xlink:href="#block"/><use x="109.7560975610" y="341.4634146341" xlink:href="#block"/><use x="134.1463414634" y="341.4634146341" xlink:href="#block"/><use x="146.3414634146" y="341.4634146341" xlink:href="#block"/><use x="182.9268292683" y="341.4634146341" xlink:href="#block"/><use x="195.1219512195" y="341.4634146341" xlink:href="#block"/><use x="219.5121951220" y="341.4634146341" xlink:href="#block"/><use x="256.0975609756" y="341.4634146341" xlink:href="#block"/><use x="268.2926829268" y="341.4634146341" xlink:href="#block"/><use x="329.2682926829" y="341.4634146341" xlink:href="#block"/><use x="341.4634146341" y="341.4634146341" xlink:href="#block"/><use x="390.2439024390" y="341.4634146341" xlink:href="#block"/><use x="402.4390243902" y="341.4634146341" xlink:href="#block"/><use x="463.4146341463" y="341.4634146341" xlink:href="#block"/><use x="0.0000000000" y="353.6585365854" xlink:href="#block"/><use x="12.1951219512" y="353.6585365854" xlink:href="#block"/><use x="36.5853658537" y="353.6585365854" xlink:href="#block"/><use x="60.9756097561" y="353.6585365854" xlink:href="#block"/><use x="97.5609756098" y="353.6585365854" xlink:href="#block"/><use x="121.9512195122" y="353.6585365854" xlink:href="#block"/><use x="146.3414634146" y="353.6585365854" xlink:href="#block"/><use x="158.5365853659" y="353.6585365854" xlink:href="#block"/><use x="170.7317073171" y="353.6585365854" xlink:href="#block"/><use x="182.9268292683" y="353.6585365854" xlink:href="#block"/><use x="195.1219512195" y="353.6585365854" xlink:href="#block"/><use x="207.3170731707" y="353.6585365854" xlink:href="#block"/><use x="219.5121951220" y="353.6585365854" xlink:href="#block"/><use x="231.7073170732" y="353.6585365854" xlink:href="#block"/><use x="256.0975609756" y="353.6585365854" xlink:href="#block"/><use x="280.4878048780" y="353.6585365854" xlink:href="#block"/><use x="292.6829268293" y="353.6585365854" xlink:href="#block"/><use x="304.8780487805" y="353.6585365854" xlink:href="#block"/><use x="341.4634146341" y="353.6585365854" xlink:href="#block"/><use x="353.6585365854" y="353.6585365854" xlink:href="#block"/><use x="365.8536585366" y="353.6585365854" xlink:href="#block"/><use x="390.2439024390" y="353.6585365854" xlink:href="#block"/><use x="402.4390243902" y="353.6585365854" xlink:href="#block"/><use x="414.6341463415" y="353.6585365854" xlink:href="#block"/><use x="451.2195121951" y="353.6585365854" xlink:href="#block"/><use x="475.6097560976" y="353.6585365854" xlink:href="#block"/><use x="0.0000000000" y="365.8536585366" xlink:href="#block"/><use x="12.1951219512" y="365.8536585366" xlink:href="#block"/><use x="24.3902439024" y="365.8536585366" xlink:href="#block"/><use x="36.5853658537" y="365.8536585366" xlink:href="#block"/><use x="48.7804878049" y="365.8536585366" xlink:href="#block"/><use x="60.9756097561" y="365.8536585366" xlink:href="#block"/><use x="73.1707317073" y="365.8536585366" xlink:href="#block"/><use x="109.7560975610" y="365.8536585366" xlink:href="#block"/><use x="121.9512195122" y="365.8536585366" xlink:href="#block"/><use x="170.7317073171" y="365.8536585366" xlink:href="#block"/><use x="195.1219512195" y="365.8536585366" xlink:href="#block"/><use x="207.3170731707" y="365.8536585366" xlink:href="#block"/><use x="219.5121951220" y="365.8536585366" xlink:href="#block"/><use x="243.9024390244" y="365.8536585366" xlink:href="#block"/><use x="268.2926829268" y="365.8536585366" xlink:href="#block"/><use x="304.8780487805" y="365.8536585366" xlink:href="#block"/><use x="329.2682926829" y="365.8536585366" xlink:href="#block"/><use x="390.2439024390" y="365.8536585366" xlink:href="#block"/><use x="414.6341463415" y="365.8536585366" xlink:href="#block"/><use x="426.8292682927" y="365.8536585366" xlink:href="#block"/><use x="0.0000000000" y="378.0487804878" xlink:href="#block"/><use x="12.1951219512" y="378.0487804878" xlink:href="#block"/><use x="36.5853658537" y="378.0487804878" xlink:href="#block"/><use x="60.9756097561" y="378.0487804878" xlink:href="#block"/><use x="85.3658536585" y="378.0487804878" xlink:href="#block"/><use x="97.5609756098" y="378.0487804878" xlink:href="#block"/><use x="134.1463414634" y="378.0487804878" xlink:href="#block"/><use x="146.3414634146" y="378.0487804878" xlink:href="#block"/><use x="158.5365853659" y="378.0487804878" xlink:href="#block"/><use x="195.1219512195" y="378.0487804878" xlink:href="#block"/><use x="207.3170731707" y="378.0487804878" xlink:href="#block"/><use x="231.7073170732" y="378.0487804878" xlink:href="#block"/><use x="256.0975609756" y="378.0487804878" xlink:href="#block"/><use x="268.2926829268" y="378.0487804878" xlink:href="#block"/><use x="304.8780487805" y="378.0487804878" xlink:href="#block"/><use x="402.4390243902" y="378.0487804878" xlink:href="#block"/><use x="414.6341463415" y="378.0487804878" xlink:href="#block"/><use x="426.8292682927" y="378.0487804878" xlink:href="#block"/><use x="439.0243902439" y="378.0487804878" xlink:href="#block"/><use x="463.4146341463" y="378.0487804878" xlink:href="#block"/><use x="487.8048780488" y="378.0487804878" xlink:href="#block"/><use x="0.0000000000" y="390.2439024390" xlink:href="#block"/><use x="12.1951219512" y="390.2439024390" xlink:href="#block"/><use x="36.5853658537" y="390.2439024390" xlink:href="#block"/><use x="73.1707317073" y="390.2439024390" xlink:href="#block"/><use x="97.5609756098" y="390.2439024390" xlink:href="#block"/><use x="109.7560975610" y="390.2439024390" xlink:href="#block"/><use x="146.3414634146" y="390.2439024390" xlink:href="#block"/><use x="170.7317073171" y="390.2439024390" xlink:href="#block"/><use x="195.1219512195" y="390.2439024390" xlink:href="#block"/><use x="219.5121951220" y="390.2439024390" xlink:href="#block"/><use x="231.7073170732" y="390.2439024390" xlink:href="#block"/><use x="243.9024390244" y="390.2439024390" xlink:href="#block"/><use x="280.4878048780" y="390.2439024390" xlink:href="#block"/><use x="292.6829268293" y="390.2439024390" xlink:href="#block"/><use x="317.0731707317" y="390.2439024390" xlink:href="#block"/><use x="329.2682926829" y="390.2439024390" xlink:href="#block"/><use x="353.6585365854" y="390.2439024390" xlink:href="#block"/><use x="365.8536585366" y="390.2439024390" xlink:href="#block"/><use x="390.2439024390" y="390.2439024390" xlink:href="#block"/><use x="402.4390243902" y="390.2439024390" xlink:href="#block"/><use x="414.6341463415" y="390.2439024390" xlink:href="#block"/><use x="426.8292682927" y="390.2439024390" xlink:href="#block"/><use x="439.0243902439" y="390.2439024390" xlink:href="#block"/><use x="451.2195121951" y="390.2439024390" xlink:href="#block"/><use x="487.8048780488" y="390.2439024390" xlink:href="#block"/><use x="97.5609756098" y="402.4390243902" xlink:href="#block"/><use x="121.9512195122" y="402.4390243902" xlink:href="#block"/><use x="182.9268292683" y="402.4390243902" xlink:href="#block"/><use x="207.3170731707" y="402.4390243902" xlink:href="#block"/><use x="231.7073170732" y="402.4390243902" xlink:href="#block"/><use x="256.0975609756" y="402.4390243902" xlink:href="#block"/><use x="268.2926829268" y="402.4390243902" xlink:href="#block"/><use x="280.4878048780" y="402.4390243902" xlink:href="#block"/><use x="292.6829268293" y="402.4390243902" xlink:href="#block"/><use x="317.0731707317" y="402.4390243902" xlink:href="#block"/><use x="353.6585365854" y="402.4390243902" xlink:href="#block"/><use x="365.8536585366" y="402.4390243902" xlink:href="#block"/><use x="390.2439024390" y="402.4390243902" xlink:href="#block"/><use x="439.0243902439" y="402.4390243902" xlink:href="#block"/><use x="451.2195121951" y="402.4390243902" xlink:href="#block"/><use x="463.4146341463" y="402.4390243902" xlink:href="#block"/><use x="487.8048780488" y="402.4390243902" xlink:href="#block"/><use x="0.0000000000" y="414.6341463415" xlink:href="#block"/><use x="12.1951219512" y="414.6341463415" xlink:href="#block"/><use x="24.3902439024" y="414.6341463415" xlink:href="#block"/><use x="36.5853658537" y="414.6341463415" xlink:href="#block"/><use x="48.7804878049" y="414.6341463415" xlink:href="#block"/><use x="60.9756097561" y="414.6341463415" xlink:href="#block"/><use x="73.1707317073" y="414.6341463415" xlink:href="#block"/><use x="97.5609756098" y="414.6341463415" xlink:href="#block"/><use x="109.7560975610" y="414.6341463415" xlink:href="#block"/><use x="121.9512195122" y="414.6341463415" xlink:href="#block"/><use x="134.1463414634" y="414.6341463415" xlink:href="#block"/><use x="146.3414634146" y="414.6341463415" xlink:href="#block"/><use x="207.3170731707" y="414.6341463415" xlink:href="#block"/><use x="219.5121951220" y="414.6341463415" xlink:href="#block"/><use x="231.7073170732" y="414.6341463415" xlink:href="#block"/><use x="243.9024390244" y="414.6341463415" xlink:href="#block"/><use x="280.4878048780" y="414.6341463415" xlink:href="#block"/><use x="317.0731707317" y="414.6341463415" xlink:href="#block"/><use x="341.4634146341" y="414.6341463415" xlink:href="#block"/><use x="390.2439024390" y="414.6341463415" xlink:href="#block"/><use x="414.6341463415" y="414.6341463415" xlink:href="#block"/><use x="439.0243902439" y="414.6341463415" xlink:href="#block"/><use x="0.0000000000" y="426.8292682927" xlink:href="#block"/><use x="73.1707317073" y="426.8292682927" xlink:href="#block"/><use x="170.7317073171" y="426.8292682927" xlink:href="#block"/><use x="182.9268292683" y="426.8292682927" xlink:href="#block"/><use x="195.1219512195" y="426.8292682927" xlink:href="#block"/><use x="243.9024390244" y="426.8292682927" xlink:href="#block"/><use x="256.0975609756" y="426.8292682927" xlink:href="#block"/><use x="268.2926829268" y="426.8292682927" xlink:href="#block"/><use x="280.4878048780" y="426.8292682927" xlink:href="#block"/><use x="292.6829268293" y="426.8292682927" xlink:href="#block"/><use x="317.0731707317" y="426.8292682927" xlink:href="#block"/><use x="329.2682926829" y="426.8292682927" xlink:href="#block"/><use x="341.4634146341" y="426.8292682927" xlink:href="#block"/><use x="365.8536585366" y="426.8292682927" xlink:href="#block"/><use x="378.0487804878" y="426.8292682927" xlink:href="#block"/><use x="390.2439024390" y="426.8292682927" xlink:href="#block"/><use x="439.0243902439" y="426.8292682927" xlink:href="#block"/><use x="451.2195121951" y="426.8292682927" xlink:href="#block"/><use x="475.6097560976" y="426.8292682927" xlink:href="#block"/><use x="0.0000000000" y="439.0243902439" xlink:href="#block"/><use x="24.3902439024" y="439.0243902439" xlink:href="#block"/><use x="36.5853658537" y="439.0243902439" xlink:href="#block"/><use x="48.7804878049" y="439.0243902439" xlink:href="#block"/><use x="73.1707317073" y="439.0243902439" xlink:href="#block"/><use x="97.5609756098" y="439.0243902439" xlink:href="#block"/><use x="134.1463414634" y="439.0243902439" xlink:href="#block"/><use x="146.3414634146" y="439.0243902439" xlink:href="#block"/><use x="158.5365853659" y="439.0243902439" xlink:href="#block"/><use x="170.7317073171" y="439.0243902439" xlink:href="#block"/><use x="182.9268292683" y="439.0243902439" xlink:href="#block"/><use x="207.3170731707" y="439.0243902439" xlink:href="#block"/><use x="243.9024390244" y="439.0243902439" xlink:href="#block"/><use x="256.0975609756" y="439.0243902439" xlink:href="#block"/><use x="292.6829268293" y="439.0243902439" xlink:href="#block"/><use x="317.0731707317" y="439.0243902439" xlink:href="#block"/><use x="329.2682926829" y="439.0243902439" xlink:href="#block"/><use x="353.6585365854" y="439.0243902439" xlink:href="#block"/><use x="378.0487804878" y="439.0243902439" xlink:href="#block"/><use x="390.2439024390" y="439.0243902439" xlink:href="#block"/><use x="402.4390243902" y="439.0243902439" xlink:href="#block"/><use x="414.6341463415" y="439.0243902439" xlink:href="#block"/><use x="426.8292682927" y="439.0243902439" xlink:href="#block"/><use x="439.0243902439" y="439.0243902439" xlink:href="#block"/><use x="451.2195121951" y="439.0243902439" xlink:href="#block"/><use x="463.4146341463" y="439.0243902439" xlink:href="#block"/><use x="487.8048780488" y="439.0243902439" xlink:href="#block"/><use x="0.0000000000" y="451.2195121951" xlink:href="#block"/><use x="24.3902439024" y="451.2195121951" xlink:href="#block"/><use x="36.5853658537" y="451.2195121951" xlink:href="#block"/><use x="48.7804878049" y="451.2195121951" xlink:href="#block"/><use x="73.1707317073" y="451.2195121951" xlink:href="#block"/><use x="97.5609756098" y="451.2195121951" xlink:href="#block"/><use x="109.7560975610" y="451.2195121951" xlink:href="#block"/><use x="158.5365853659" y="451.2195121951" xlink:href="#block"/><use x="195.1219512195" y="451.2195121951" xlink:href="#block"/><use x="207.3170731707" y="451.2195121951" xlink:href="#block"/><use x="219.5121951220" y="451.2195121951" xlink:href="#block"/><use x="256.0975609756" y="451.2195121951" xlink:href="#block"/><use x="292.6829268293" y="451.2195121951" xlink:href="#block"/><use x="304.8780487805" y="451.2195121951" xlink:href="#block"/><use x="317.0731707317" y="451.2195121951" xlink:href="#block"/><use x="365.8536585366" y="451.2195121951" xlink:href="#block"/><use x="439.0243902439" y="451.2195121951" xlink:href="#block"/><use x="475.6097560976" y="451.2195121951" xlink:href="#block"/><use x="0.0000000000" y="463.4146341463" xlink:href="#block"/><use x="24.3902439024" y="463.4146341463" xlink:href="#block"/><use x="36.5853658537" y="463.4146341463" xlink:href="#block"/><use x="48.7804878049" y="463.4146341463" xlink:href="#block"/><use x="73.1707317073" y="463.4146341463" xlink:href="#block"/><use x="109.7560975610" y="463.4146341463" xlink:href="#block"/><use x="134.1463414634" y="463.4146341463" xlink:href="#block"/><use x="158.5365853659" y="463.4146341463" xlink:href="#block"/><use x="170.7317073171" y="463.4146341463" xlink:href="#block"/><use x="195.1219512195" y="463.4146341463" xlink:href="#block"/><use x="219.5121951220" y="463.4146341463" xlink:href="#block"/><use x="243.9024390244" y="463.4146341463" xlink:href="#block"/><use x="256.0975609756" y="463.4146341463" xlink:href="#block"/><use x="280.4878048780" y="463.4146341463" xlink:href="#block"/><use x="292.6829268293" y="463.4146341463" xlink:href="#block"/><use x="304.8780487805" y="463.4146341463" xlink:href="#block"/><use x="329.2682926829" y="463.4146341463" xlink:href="#block"/><use x="341.4634146341" y="463.4146341463" xlink:href="#block"/><use x="353.6585365854" y="463.4146341463" xlink:href="#block"/><use x="426.8292682927" y="463.4146341463" xlink:href="#block"/><use x="439.0243902439" y="463.4146341463" xlink:href="#block"/><use x="451.2195121951" y="463.4146341463" xlink:href="#block"/><use x="463.4146341463" y="463.4146341463" xlink:href="#block"/><use x="475.6097560976" y="463.4146341463" xlink:href="#block"/><use x="487.8048780488" y="463.4146341463" xlink:href="#block"/><use x="0.0000000000" y="475.6097560976" xlink:href="#block"/><use x="73.1707317073" y="475.6097560976" xlink:href="#block"/><use x="121.9512195122" y="475.6097560976" xlink:href="#block"/><use x="146.3414634146" y="475.6097560976" xlink:href="#block"/><use x="158.5365853659" y="475.6097560976" xlink:href="#block"/><use x="170.7317073171" y="475.6097560976" xlink:href="#block"/><use x="182.9268292683" y="475.6097560976" xlink:href="#block"/><use x="195.1219512195" y="475.6097560976" xlink:href="#block"/><use x="219.5121951220" y="475.6097560976" xlink:href="#block"/><use x="280.4878048780" y="475.6097560976" xlink:href="#block"/><use x="329.2682926829" y="475.6097560976" xlink:href="#block"/><use x="353.6585365854" y="475.6097560976" xlink:href="#block"/><use x="365.8536585366" y="475.6097560976" xlink:href="#block"/><use x="378.0487804878" y="475.6097560976" xlink:href="#block"/><use x="390.2439024390" y="475.6097560976" xlink:href="#block"/><use x="402.4390243902" y="475.6097560976" xlink:href="#block"/><use x="414.6341463415" y="475.6097560976" xlink:href="#block"/><use x="426.8292682927" y="475.6097560976" xlink:href="#block"/><use x="451.2195121951" y="475.6097560976" xlink:href="#block"/><use x="475.6097560976" y="475.6097560976" xlink:href="#block"/><use x="0.0000000000" y="487.8048780488" xlink:href="#block"/><use x="12.1951219512" y="487.8048780488" xlink:href="#block"/><use x="24.3902439024" y="487.8048780488" xlink:href="#block"/><use x="36.5853658537" y="487.8048780488" xlink:href="#block"/><use x="48.7804878049" y="487.8048780488" xlink:href="#block"/><use x="60.9756097561" y="487.8048780488" xlink:href="#block"/><use x="73.1707317073" y="487.8048780488" xlink:href="#block"/><use x="121.9512195122" y="487.8048780488" xlink:href="#block"/><use x="134.1463414634" y="487.8048780488" xlink:href="#block"/><use x="146.3414634146" y="487.8048780488" xlink:href="#block"/><use x="182.9268292683" y="487.8048780488" xlink:href="#block"/><use x="195.1219512195" y="487.8048780488" xlink:href="#block"/><use x="231.7073170732" y="487.8048780488" xlink:href="#block"/><use x="243.9024390244" y="487.8048780488" xlink:href="#block"/><use x="280.4878048780" y="487.8048780488" xlink:href="#block"/><use x="304.8780487805" y="487.8048780488" xlink:href="#block"/><use x="317.0731707317" y="487.8048780488" xlink:href="#block"/><use x="329.2682926829" y="487.8048780488" xlink:href="#block"/><use x="341.4634146341" y="487.8048780488" xlink:href="#block"/><use x="378.0487804878" y="487.8048780488" xlink:href="#block"/><use x="390.2439024390" y="487.8048780488" xlink:href="#block"/><use x="402.4390243902" y="487.8048780488" xlink:href="#block"/><use x="414.6341463415" y="487.8048780488" xlink:href="#block"/><use x="439.0243902439" y="487.8048780488" xlink:href="#block"/><use x="463.4146341463" y="487.8048780488" xlink:href="#block"/></svg>
